<svg width="48" height="48" viewBox="0 0 48 48" fill="none" xmlns="http://www.w3.org/2000/svg">
<circle cx="24" cy="24" r="24" fill="#101214"/>
<path fill-rule="evenodd" clip-rule="evenodd" d="M23.6804 10.7694C24.0755 10.8193 24.4457 10.6774 24.7851 10.4712C25.0785 10.3101 25.2914 10.0666 25.4458 9.77601L25.4598 9.74978C25.5345 9.61033 25.6117 9.46618 25.5963 9.29656C25.5999 9.29037 25.6038 9.28437 25.6076 9.2784C25.6164 9.26496 25.625 9.25172 25.6289 9.23711C25.7028 8.94464 25.6663 8.65697 25.5963 8.3693C25.5494 8.1756 25.4841 7.99245 25.3576 7.83518C25.2185 7.60313 25.0306 7.41998 24.8043 7.27231C24.4572 7.04313 24.0746 6.98847 23.668 7.00189C23.4858 7.00765 23.318 7.04121 23.1617 7.09874C22.9009 7.19463 22.6726 7.35573 22.4665 7.56765C22.2881 7.75176 22.1567 7.95505 22.0704 8.1756C21.9841 8.39615 21.9439 8.63491 21.9477 8.88806C21.9525 9.1719 22.0177 9.44423 22.151 9.70889C22.4732 10.3475 22.9996 10.6831 23.6824 10.7694H23.6804ZM25.1657 18.4944L25.2937 18.5557L25.2943 18.5559C25.4257 18.6188 25.5567 18.6815 25.6884 18.7437L25.754 18.7768L25.8197 18.8099C25.8638 18.832 25.9079 18.8531 25.9521 18.8732C26.0193 18.9029 26.0865 18.9328 26.1537 18.9627L26.1538 18.9627L26.1538 18.9627C26.3837 19.0649 26.6136 19.167 26.8458 19.2635C27.3425 19.4696 27.8411 19.6729 28.3407 19.8714C28.4462 19.9136 28.5536 19.951 28.6619 19.9874C28.7047 20.002 28.7477 20.0163 28.7908 20.0308L28.7913 20.0309L28.7914 20.031L28.7914 20.031L28.7915 20.031C28.8562 20.0526 28.9211 20.0744 28.986 20.0968C29.0191 20.1081 29.0519 20.1198 29.0847 20.1315L29.0847 20.1315L29.0847 20.1315C29.1548 20.1565 29.2246 20.1813 29.2958 20.2022C29.4135 20.2366 29.5316 20.269 29.6496 20.3015L29.6499 20.3016C29.7231 20.3217 29.7962 20.3418 29.8692 20.3624C29.9111 20.3768 29.9529 20.3922 29.9947 20.4075L29.9947 20.4075C30.0914 20.443 30.1882 20.4786 30.2873 20.5033C30.6517 20.5954 31.018 20.6817 31.3852 20.7642C31.6297 20.8188 31.8752 20.8668 32.1217 20.9128C32.1976 20.927 32.275 20.9355 32.3524 20.944C32.3845 20.9475 32.4166 20.951 32.4486 20.955C32.4874 20.965 32.5261 20.9754 32.5648 20.9859L32.5649 20.9859L32.5649 20.986C32.6563 21.0107 32.7479 21.0356 32.8408 21.0537C32.9681 21.0785 33.0963 21.0986 33.2342 21.1203C33.2938 21.1296 33.3552 21.1392 33.4191 21.1496C33.4226 21.1356 33.4272 21.1194 33.4323 21.1015L33.4323 21.1014L33.4323 21.1014L33.4323 21.1014L33.4324 21.1013C33.4449 21.057 33.4603 21.0026 33.4699 20.9473C33.4775 20.9044 33.4809 20.8607 33.4842 20.817V20.8169C33.4871 20.7787 33.49 20.7404 33.4958 20.7028C33.5188 20.5388 33.5428 20.3748 33.5725 20.2128C33.5904 20.114 33.6119 20.016 33.6334 19.918C33.6452 19.8639 33.6571 19.8097 33.6684 19.7554C33.6778 19.709 33.6861 19.6622 33.6944 19.6153L33.6945 19.6152L33.6945 19.615L33.6958 19.6074C33.7007 19.5804 33.7055 19.5533 33.7106 19.5262C33.7371 19.4288 33.7638 19.3315 33.7907 19.2337C33.8201 19.1263 33.8497 19.0185 33.8793 18.9096C33.8221 18.8972 33.7684 18.885 33.7168 18.8734L33.7168 18.8734L33.7166 18.8733C33.6134 18.8501 33.5191 18.8288 33.4239 18.8109C33.323 18.7917 33.2219 18.7742 33.1208 18.7568C32.9489 18.7271 32.7771 18.6974 32.6069 18.6594C32.4023 18.6133 32.1994 18.5588 31.9966 18.5042C31.8951 18.477 31.7937 18.4497 31.6921 18.4235C31.6645 18.4164 31.6356 18.4136 31.6066 18.4109C31.5923 18.4095 31.5779 18.4081 31.5636 18.4062C31.486 18.3834 31.4085 18.3602 31.3311 18.337C31.2201 18.3038 31.1091 18.2706 30.9978 18.2384C30.7658 18.1703 30.5337 18.1025 30.3017 18.0346C30.0696 17.9668 29.8375 17.8989 29.6055 17.8309L29.5873 17.8223C29.5721 17.815 29.5567 17.8076 29.5403 17.8021L29.2744 17.7095L29.2741 17.7094L29.2738 17.7093L29.2735 17.7092C28.9302 17.5896 28.5873 17.4702 28.2438 17.3514C28.216 17.3442 28.1882 17.3368 28.1604 17.3293L28.1602 17.3293C28.1325 17.3219 28.1047 17.3145 28.077 17.3073C28.0693 17.3044 28.0616 17.3025 28.054 17.3025L28.0395 17.2962L28.03 17.292C28.0221 17.2884 28.0142 17.2848 28.006 17.2814C27.9375 17.2378 27.8589 17.2177 27.7805 17.1976L27.7804 17.1976C27.7503 17.1898 27.7201 17.1821 27.6905 17.173C27.6263 17.1529 27.5649 17.1261 27.5122 17.0791C27.5039 17.0714 27.4901 17.0697 27.4764 17.068L27.4764 17.068C27.4695 17.0672 27.4627 17.0663 27.4566 17.0647C27.425 17.0532 27.3931 17.0419 27.3613 17.0307L27.3612 17.0307C27.3293 17.0194 27.2974 17.0081 27.2658 16.9966C27.2648 16.9937 27.2629 16.9909 27.261 16.9899C27.259 16.9889 27.2562 16.988 27.2523 16.9899C27.2466 16.987 27.2411 16.9839 27.2355 16.9808L27.2355 16.9808C27.23 16.9777 27.2245 16.9746 27.2188 16.9717C27.0395 16.9055 26.8611 16.8394 26.6818 16.7722C26.6563 16.7595 26.6309 16.7462 26.6055 16.7328C26.5505 16.704 26.4952 16.675 26.4382 16.6514C26.2292 16.5651 26.0194 16.4802 25.8096 16.3954C25.5999 16.3105 25.3901 16.2256 25.1811 16.1393C24.97 16.0522 24.7601 15.9634 24.5502 15.8746C24.4368 15.8266 24.3234 15.7786 24.2097 15.7309C24.1841 15.7191 24.1582 15.7076 24.1325 15.6962L24.1324 15.6962C24.0638 15.6658 23.9952 15.6355 23.9297 15.5985C23.8175 15.5352 23.7149 15.5467 23.6027 15.6014C23.4397 15.681 23.2729 15.751 23.1051 15.821C22.9498 15.886 22.7943 15.9497 22.6386 16.0135L22.6386 16.0135L22.6386 16.0135L22.6386 16.0135C22.5326 16.0569 22.4267 16.1003 22.3207 16.1441L22.3185 16.145C21.8081 16.3567 21.2978 16.5683 20.7883 16.7799C20.6823 16.8241 20.5768 16.8692 20.4715 16.9142L20.3415 16.9698L20.2504 17.0028L20.1593 17.0359L19.5063 17.2833C19.4496 17.3026 19.3929 17.3217 19.3362 17.3408L19.3356 17.341C19.2123 17.3826 19.0891 17.4241 18.9664 17.4674C18.9172 17.4844 18.8684 17.5022 18.8194 17.5201L18.8194 17.5201L18.8193 17.5201C18.7911 17.5304 18.7628 17.5407 18.7344 17.5509C18.6576 17.5796 18.58 17.6084 18.5033 17.6362C18.4951 17.64 18.4872 17.6441 18.4793 17.6482C18.4714 17.6523 18.4635 17.6563 18.4553 17.6602L18.4408 17.6673L18.4313 17.6722C18.4234 17.6762 18.4155 17.6803 18.4074 17.6841C18.3796 17.6917 18.3518 17.6995 18.324 17.7073C18.2884 17.7172 18.2526 17.7272 18.2165 17.7369C18.1792 17.7482 18.1419 17.7598 18.1047 17.7714L18.1046 17.7715L18.1043 17.7716L18.0276 17.7954L18.0276 17.7954L18.0275 17.7954L18.0275 17.7954L18.0274 17.7954C17.9076 17.8328 17.7878 17.8702 17.668 17.9066C17.6599 17.91 17.6518 17.9131 17.6436 17.9162L17.6436 17.9162C17.6354 17.9193 17.6273 17.9224 17.6191 17.9258C17.611 17.9291 17.6029 17.9322 17.5948 17.9353L17.5947 17.9354C17.5865 17.9385 17.5784 17.9416 17.5702 17.945L17.4724 17.9766C17.4715 17.9766 17.4708 17.9771 17.47 17.9776L17.4692 17.9781C17.4687 17.9783 17.4682 17.9785 17.4676 17.9785L17.4451 17.9886L17.4226 17.9987C17.4144 18.0001 17.406 18.0013 17.3976 18.0025C17.3892 18.0037 17.3809 18.0049 17.3727 18.0063L17.3267 18.0092H17.3238C17.2662 18.0261 17.2088 18.0437 17.1513 18.0613L17.1513 18.0613L17.1512 18.0613L17.1512 18.0613L17.1512 18.0613C17.0517 18.0919 16.9519 18.1225 16.8511 18.1492C16.3831 18.2739 15.9132 18.3966 15.4443 18.5184C15.2948 18.5574 15.1443 18.5947 14.9939 18.632C14.9187 18.6506 14.8434 18.6693 14.7683 18.6881H14.7674C14.7472 18.6881 14.7271 18.6881 14.7069 18.6891C14.6154 18.7087 14.5238 18.7286 14.4322 18.7485C14.3406 18.7684 14.2491 18.7883 14.1575 18.808C14.1186 18.8158 14.0798 18.8232 14.041 18.8307L14.0407 18.8307L14.0404 18.8308L14.0402 18.8308C13.9595 18.8463 13.879 18.8618 13.7989 18.8799C13.6627 18.9106 13.6541 18.9355 13.725 19.0611C13.7365 19.0813 13.7442 19.1043 13.75 19.1273C13.7845 19.2663 13.819 19.4063 13.8526 19.5463C13.8558 19.5742 13.8586 19.602 13.8614 19.6297C13.8677 19.6919 13.8739 19.7538 13.8852 19.8148C13.9156 19.9838 13.9486 20.1522 13.9815 20.3205L14.0194 20.5148L14.0402 20.6207C14.068 20.7619 14.0957 20.903 14.121 21.0442C14.1364 21.1314 14.1863 21.1362 14.2591 21.1199C14.3231 21.1058 14.3876 21.0943 14.4521 21.0829C14.5104 21.0725 14.5686 21.0622 14.6264 21.0499C14.7414 21.0262 14.8561 21.0006 14.9709 20.9751C15.0417 20.9593 15.1125 20.9435 15.1835 20.9281C15.2004 20.9273 15.2174 20.927 15.2343 20.9267H15.2344C15.2732 20.9262 15.3117 20.9256 15.3484 20.9176L15.5834 20.867C16.0785 20.7604 16.5732 20.6539 17.0659 20.5388C17.2261 20.5015 17.3836 20.4518 17.5412 20.402L17.5412 20.402C17.6147 20.3788 17.6882 20.3556 17.762 20.3336C17.8565 20.303 17.9511 20.2726 18.0457 20.2422L18.0459 20.2421L18.0459 20.2421L18.0459 20.2421C18.292 20.1631 18.5381 20.084 18.7833 20.0009C19.0633 19.9059 19.3413 19.8062 19.6175 19.7026C19.8352 19.6211 20.0509 19.532 20.2657 19.4409C20.6263 19.2884 20.9878 19.135 21.3445 18.9758C21.5902 18.8661 21.8349 18.7535 22.0796 18.6408C22.2714 18.5525 22.4632 18.4642 22.6553 18.3774C22.8658 18.2824 23.0775 18.1895 23.2893 18.0964C23.4047 18.0457 23.5201 17.9951 23.6353 17.944C23.8089 17.9258 23.9681 17.9651 24.1263 18.0409C24.3328 18.1393 24.5428 18.2297 24.7528 18.32L24.7528 18.32L24.7528 18.32L24.7528 18.32L24.7531 18.3202C24.8335 18.3548 24.9139 18.3894 24.9941 18.4244L25.0785 18.457L25.1629 18.4896L25.1657 18.4944ZM23.0639 37.7042C23.0639 37.4868 23.0628 37.2698 23.0618 37.0527C23.0611 36.9078 23.0604 36.7628 23.06 36.6178V34.0594V31.0714V30.5105C23.0431 30.515 23.0271 30.5191 23.0118 30.5231L23.0118 30.5231L23.0118 30.5231C22.9724 30.5332 22.9376 30.5422 22.9037 30.5546C22.8371 30.5787 22.7708 30.6039 22.7046 30.6291L22.7045 30.6291C22.5993 30.6692 22.4943 30.7092 22.3878 30.7444C21.9803 30.8797 21.5709 31.0139 21.1604 31.1424C21.0006 31.1927 20.8397 31.2397 20.6789 31.2866C20.5425 31.3264 20.4061 31.3662 20.2706 31.408C20.2409 31.4176 20.2035 31.4627 20.2025 31.4914C20.1988 31.6413 20.2008 31.7917 20.2028 31.9418L20.2028 31.9422C20.2034 31.9869 20.204 32.0317 20.2044 32.0764V34.1083V34.5734C20.1909 34.5676 20.1764 34.5627 20.1618 34.5578L20.1617 34.5578C20.1276 34.5464 20.0933 34.5348 20.0711 34.512C19.9975 34.4356 19.9283 34.3548 19.8589 34.2737L19.8589 34.2737C19.8316 34.2418 19.8043 34.2099 19.7767 34.1783C19.7658 34.1635 19.755 34.1485 19.7443 34.1335L19.7442 34.1335C19.725 34.1065 19.7056 34.0795 19.6847 34.0536C18.9981 33.2194 18.394 32.3276 17.8302 31.4071L17.8178 31.3811C17.8068 31.3578 17.7957 31.3345 17.7832 31.3121C17.7525 31.2567 17.7222 31.2011 17.692 31.1455C17.6048 30.9853 17.5177 30.8253 17.4217 30.6716C17.3565 30.568 17.4054 30.5239 17.4782 30.4731C17.5246 30.4664 17.5713 30.461 17.6179 30.4556L17.6181 30.4555C17.719 30.4438 17.8198 30.4321 17.9174 30.4079C18.0809 30.3671 18.2434 30.3216 18.406 30.276C18.5685 30.2305 18.7311 30.1849 18.8945 30.1442C19.0159 30.1137 19.1385 30.0889 19.2612 30.064L19.2613 30.064C19.3974 30.0364 19.5337 30.0088 19.6684 29.9735C19.9291 29.9057 20.1875 29.8257 20.4456 29.7458L20.4457 29.7458L20.4458 29.7457L20.5372 29.7175C20.703 29.6663 20.8678 29.6122 21.0326 29.5581L21.0327 29.5581L21.0328 29.5581L21.0329 29.5581L21.0331 29.558L21.0334 29.5579L21.0336 29.5578C21.1372 29.5239 21.2407 29.4899 21.3446 29.4566C21.4111 29.4355 21.478 29.415 21.5448 29.3946L21.5452 29.3945C21.666 29.3575 21.7868 29.3206 21.9065 29.2792C22.2651 29.1546 22.6218 29.0261 22.9766 28.8918C23.015 28.8775 23.0591 28.817 23.061 28.7758C23.0671 28.6576 23.065 28.5388 23.063 28.4203L23.063 28.4202C23.0621 28.3715 23.0613 28.3229 23.061 28.2743V26.601V23.685V20.8639V19.8599V19.204C23.0403 19.2139 23.0213 19.2226 23.0035 19.2307L23.0035 19.2307C22.9678 19.2471 22.937 19.2612 22.9076 19.2778C22.8126 19.33 22.7183 19.3833 22.624 19.4366C22.4393 19.5409 22.2548 19.6451 22.0657 19.741C21.87 19.8397 21.6735 19.9356 21.4759 20.0296L21.1791 20.1706L20.8824 20.3115L20.6326 20.4175L20.3828 20.5234C20.3503 20.5373 20.3178 20.551 20.2854 20.5647C20.2394 20.5841 20.1934 20.6035 20.1478 20.6232L19.4804 20.8619C19.2505 20.9434 19.0205 21.0239 18.7905 21.1044L18.7904 21.1044L18.7903 21.1045L18.7901 21.1045L18.79 21.1045C18.7344 21.1218 18.6788 21.1391 18.6232 21.1573L18.43 21.2249L18.2367 21.2925C18.2175 21.2982 18.1984 21.3044 18.1794 21.3106L18.1794 21.3106L18.1793 21.3106C18.1471 21.3212 18.1149 21.3316 18.0824 21.3395C17.9619 21.3688 17.8412 21.3973 17.7206 21.4259C17.5647 21.4627 17.409 21.4996 17.2539 21.538C17.1401 21.5663 17.0267 21.5964 16.9132 21.6265L16.9132 21.6265L16.9132 21.6265L16.9131 21.6266C16.7006 21.683 16.488 21.7394 16.2729 21.7844C15.8212 21.8793 15.3667 21.9656 14.9103 22.0356C14.5896 22.0849 14.2669 22.1219 13.9441 22.1588C13.8084 22.1743 13.6727 22.1899 13.5371 22.2063L13.4412 22.2322C13.4281 22.2329 13.415 22.2331 13.4019 22.2333C13.3757 22.2337 13.3495 22.2341 13.3233 22.238C13.2623 22.2448 13.2014 22.2529 13.1404 22.261C13.0307 22.2755 12.921 22.29 12.8112 22.2974C12.6219 22.3092 12.432 22.3154 12.2341 22.322C12.1574 22.3245 12.0795 22.3271 12 22.33C12.0036 22.3753 12.0068 22.4196 12.0099 22.4631C12.0166 22.5567 12.0231 22.6469 12.0336 22.7366C12.046 22.839 12.0576 22.9416 12.0692 23.0441C12.1013 23.3285 12.1334 23.6128 12.1841 23.894C12.2056 24.0121 12.2202 24.1317 12.2348 24.2514C12.2659 24.5057 12.297 24.7603 12.3941 25.0015L12.4256 25.1655C12.4696 25.3947 12.5135 25.6237 12.56 25.8521C12.606 26.0803 12.653 26.3085 12.7106 26.5339C12.7201 26.5722 12.7825 26.6211 12.8237 26.624C12.9231 26.6311 13.023 26.6277 13.123 26.6243H13.123H13.1231H13.1231L13.1234 26.6243C13.1584 26.6231 13.1934 26.6219 13.2284 26.6211L13.2665 26.6199C13.3046 26.6189 13.3427 26.6178 13.3808 26.6135C13.4655 26.6033 13.5501 26.5928 13.6346 26.5822L13.6356 26.5821C13.7746 26.5648 13.9136 26.5475 14.053 26.532C14.2573 26.5093 14.4616 26.4891 14.6665 26.4689L14.8048 26.4553C14.8725 26.4459 14.9402 26.4358 15.008 26.4257L15.008 26.4257L15.008 26.4257L15.0081 26.4256L15.0082 26.4256C15.162 26.4027 15.3159 26.3798 15.4703 26.3651C15.618 26.3507 15.6391 26.3325 15.5959 26.1839C15.5714 26.1004 15.5464 26.017 15.5214 25.9335L15.5214 25.9332C15.4927 25.8373 15.4639 25.7413 15.4358 25.645C15.4238 25.6052 15.4123 25.5654 15.4008 25.5256L15.4008 25.5256C15.3893 25.4858 15.3778 25.446 15.3658 25.4062C15.3533 25.3506 15.3408 25.2959 15.3274 25.2403C15.3248 25.2221 15.3227 25.2038 15.3207 25.1854L15.3207 25.1854C15.3158 25.1427 15.311 25.1 15.2996 25.0591C15.2574 24.9066 15.2632 24.8932 15.4156 24.8673C15.4417 24.863 15.4684 24.8602 15.4952 24.8575L15.5211 24.8548C15.5686 24.8478 15.6163 24.8413 15.6641 24.8349C15.7718 24.8203 15.8796 24.8058 15.9852 24.7839C16.1529 24.7486 16.3191 24.7075 16.4852 24.6665L16.4852 24.6665L16.4853 24.6664L16.4856 24.6664C16.554 24.6495 16.6225 24.6326 16.691 24.6161C16.7011 24.6164 16.7113 24.6174 16.7216 24.6183L16.7216 24.6184H16.7217C16.7436 24.6205 16.7654 24.6226 16.7849 24.618C17.1911 24.5174 17.5973 24.4149 18.0035 24.3124L18.0047 24.3121L18.0159 24.3104C18.045 24.3062 18.0746 24.3018 18.1034 24.2968L18.1466 24.2852L18.768 24.1126L19.0326 24.0378L19.0643 24.0263C19.1142 24.011 19.1642 23.9959 19.2141 23.9808L19.2148 23.9806C19.3304 23.9456 19.4457 23.9107 19.56 23.8739C19.6998 23.8289 19.8385 23.7824 19.9774 23.7359L19.9778 23.7357L20.1296 23.685C20.1339 23.6957 20.1392 23.7069 20.1445 23.7179L20.1498 23.7291L20.1568 23.743C20.1768 23.7825 20.1968 23.822 20.1977 23.8624C20.2032 24.1514 20.2038 24.4399 20.2044 24.7287V24.7288C20.2046 24.8443 20.2048 24.9598 20.2054 25.0754C20.2051 25.1927 20.2051 25.31 20.205 25.4274V25.4274V25.4274V25.4275C20.2048 25.8186 20.2046 26.2101 20.1987 26.601C20.1987 26.6461 20.1872 26.6902 20.1728 26.7353L20.1664 26.7549L20.1587 26.778L20.1586 26.7781C20.1485 26.8084 20.1384 26.8385 20.1306 26.8685C20.1248 26.8709 20.1193 26.8736 20.1138 26.8762L20.1137 26.8762C20.1082 26.8789 20.1027 26.8815 20.097 26.8839C20.0946 26.8853 20.092 26.8865 20.0893 26.8877C20.0867 26.8889 20.0841 26.8901 20.0817 26.8916C20.0605 26.8959 20.0389 26.8995 20.0174 26.903L19.9829 26.9088C19.9503 26.9146 19.9167 26.9213 19.8851 26.9309C19.7737 26.963 19.6627 26.9961 19.5517 27.0293L19.5515 27.0293L19.5514 27.0294L19.5512 27.0294C19.3575 27.0872 19.1639 27.1451 18.9684 27.1974C18.8518 27.2287 18.7335 27.2535 18.6151 27.2784C18.5191 27.2985 18.4231 27.3186 18.3278 27.3422C18.1884 27.3761 18.0497 27.4124 17.9109 27.4487L17.9106 27.4487L17.9104 27.4488L17.9101 27.4489L17.9099 27.4489C17.7463 27.4917 17.5826 27.5345 17.4178 27.5733C17.3213 27.5964 17.2229 27.6119 17.1244 27.6273H17.1244L17.1244 27.6273C17.0635 27.6368 17.0027 27.6464 16.9422 27.6577C16.8911 27.6673 16.8402 27.6789 16.7893 27.6905C16.7285 27.7044 16.6677 27.7182 16.6066 27.7287C16.3026 27.7824 15.9986 27.8342 15.6947 27.8831C15.4981 27.9147 15.3015 27.9435 15.104 27.9665C15.0169 27.9763 14.9295 27.983 14.8421 27.9897H14.8421H14.842H14.842C14.7254 27.9987 14.6088 28.0076 14.4932 28.024C14.3999 28.0371 14.3075 28.0562 14.215 28.0753C14.0164 28.1164 13.8177 28.1574 13.611 28.1391C13.53 28.1449 13.449 28.1503 13.3638 28.156L13.189 28.1679C13.2033 28.1967 13.2173 28.2234 13.2307 28.249L13.2307 28.249L13.2308 28.249C13.257 28.2991 13.2809 28.3446 13.2993 28.3922C13.3874 28.615 13.4738 28.8384 13.5602 29.0619L13.6369 29.2601C13.6516 29.3025 13.6656 29.3453 13.6796 29.3881C13.7122 29.4875 13.7449 29.5871 13.7864 29.6829C13.9121 29.9716 14.0415 30.2583 14.1796 30.5402C14.4251 31.0436 14.6763 31.5432 14.9285 32.0428C14.9749 32.1342 15.0277 32.2226 15.0806 32.3112C15.1065 32.3545 15.1325 32.3979 15.1577 32.4417L15.2478 32.6105L15.4233 32.8982C15.827 33.6058 16.2796 34.2799 16.7658 34.932C16.9466 35.1745 17.1347 35.412 17.3229 35.6496C17.3982 35.7446 17.4734 35.8397 17.5482 35.935C17.6285 36.0299 17.7079 36.1255 17.7874 36.2212L17.7876 36.2214C17.9692 36.44 18.1508 36.6586 18.3422 36.868C18.5824 37.1313 18.8308 37.3869 19.0792 37.6425C19.1927 37.7593 19.3063 37.8762 19.4191 37.9938C19.4276 38.0041 19.4358 38.0148 19.444 38.0255C19.4624 38.0495 19.4809 38.0736 19.5035 38.0935C19.5718 38.1561 19.6397 38.2193 19.7076 38.2825L19.7077 38.2826L19.7079 38.2828C19.8887 38.4512 20.0698 38.6198 20.26 38.7772C20.8037 39.2298 21.3532 39.6748 21.9055 40.1158C22.1573 40.3171 22.4134 40.5121 22.6694 40.707L22.6695 40.707L22.6696 40.7071C22.7733 40.7861 22.8771 40.865 22.9804 40.9443C22.9936 40.9544 23.01 40.9599 23.0305 40.9668C23.0414 40.9704 23.0534 40.9745 23.0668 40.9798V40.8139V37.709L23.0639 37.7042ZM34.8114 22.3023H35.5853C35.5873 22.322 35.5898 22.3386 35.5919 22.3531C35.5957 22.3789 35.5986 22.3983 35.5968 22.4173C35.5689 22.706 35.5392 22.9955 35.5095 23.2851C35.5043 23.3344 35.4996 23.3839 35.4949 23.4334V23.4334C35.4841 23.5476 35.4732 23.6621 35.4558 23.7751C35.4386 23.8877 35.4167 23.9992 35.3947 24.1107L35.3947 24.1108L35.3947 24.1108C35.3811 24.1798 35.3676 24.2487 35.3551 24.3179C35.337 24.4206 35.3197 24.5235 35.3024 24.6263L35.3024 24.6264L35.3023 24.6264C35.2673 24.8344 35.2322 25.0423 35.1911 25.249C35.1645 25.3829 35.1295 25.515 35.0945 25.6471L35.0945 25.6471L35.0944 25.6472C35.0778 25.71 35.0611 25.7728 35.0454 25.8358C35.0355 25.8742 35.0255 25.9126 35.0155 25.9509C34.9904 26.0468 34.9654 26.1427 34.9428 26.2386C34.9237 26.3195 34.9059 26.4007 34.888 26.482L34.888 26.482L34.888 26.4821L34.888 26.4821C34.8539 26.6377 34.8197 26.7932 34.7769 26.9462C34.742 27.0699 34.6987 27.1913 34.6554 27.3126L34.6554 27.3127L34.6554 27.3127C34.6239 27.4012 34.5923 27.4897 34.564 27.5791C34.5485 27.6285 34.5383 27.6796 34.5281 27.7309C34.5174 27.7842 34.5068 27.8375 34.4902 27.8888C34.4087 28.1391 34.3262 28.3884 34.2332 28.6349C34.1649 28.8165 34.0915 28.996 34.0181 29.1756L34.0181 29.1757L34.018 29.1759L34.018 29.176C33.9802 29.2684 33.9424 29.361 33.9052 29.4538C33.8869 29.5 33.869 29.5462 33.851 29.5924L33.851 29.5925L33.851 29.5926C33.8078 29.7037 33.7647 29.8146 33.7173 29.9237C33.6539 30.0713 33.5874 30.2176 33.5209 30.3641L33.5208 30.3642L33.5208 30.3642C33.4897 30.4327 33.4586 30.5012 33.4277 30.57C33.4167 30.5983 33.4059 30.6268 33.3952 30.6553L33.3952 30.6554C33.3637 30.7386 33.3323 30.822 33.2944 30.9027C33.2829 30.9276 33.2321 30.9506 33.2004 30.9487C33.0934 30.9417 32.9868 30.9291 32.88 30.9165C32.8405 30.9118 32.8009 30.9071 32.7613 30.9027C32.5455 30.8787 32.3298 30.8538 32.114 30.8289L31.9587 30.8041C31.8551 30.7877 31.7515 30.7713 31.648 30.7541C31.5959 30.7457 31.5438 30.7354 31.4917 30.7252L31.4916 30.7252C31.4603 30.719 31.429 30.7128 31.3977 30.7071C31.2476 30.6842 31.0975 30.6618 30.9466 30.6392L30.6958 30.6016C30.6776 30.6361 30.6718 30.6678 30.6737 30.6975C30.6756 30.7282 30.6852 30.756 30.6987 30.7838C30.7054 30.7982 30.7121 30.8116 30.7198 30.825L30.7316 30.8467C30.7501 30.8805 30.7686 30.9141 30.7773 30.9497C30.7802 30.954 30.7828 30.9583 30.7854 30.9626C30.7881 30.9669 30.7907 30.9713 30.7936 30.9756C30.7941 30.9781 30.7948 30.9805 30.7955 30.9829C30.7959 30.9846 30.7964 30.9863 30.7969 30.988C30.7981 30.9921 30.7993 30.9962 30.8003 31.0005C30.8636 31.1271 30.9307 31.2508 31.0007 31.3716C31.1417 31.6142 31.2961 31.8482 31.4619 32.0745C31.5444 32.1876 31.6307 32.2989 31.7189 32.4082C31.7357 32.4264 31.7524 32.4447 31.7692 32.4631C31.7797 32.4746 31.7903 32.4862 31.8008 32.4977C31.8282 32.5277 31.8556 32.5577 31.8829 32.5875L31.9171 32.6242L31.9172 32.6243C31.9611 32.6714 32.0048 32.7183 32.0498 32.7639C32.1687 32.8857 32.1898 32.9941 32.067 33.112C32.0109 33.166 31.9784 33.2315 31.9463 33.2963C31.9202 33.3489 31.8943 33.4012 31.8561 33.4467C31.8455 33.4601 31.8359 33.4745 31.8273 33.4898C31.8187 33.5052 31.81 33.5205 31.8014 33.5349C31.7257 33.6492 31.651 33.7641 31.5762 33.879L31.5759 33.8794C31.4092 34.1356 31.2426 34.3917 31.0659 34.6405C30.4628 35.4901 29.8078 36.2975 29.103 37.0656C29.0735 37.0971 29.0462 37.1304 29.0187 37.1639L28.9987 37.1883L28.9803 37.2104L28.9285 37.2507C28.9296 37.2439 28.9309 37.2373 28.9322 37.2309C28.9333 37.2256 28.9344 37.2204 28.9352 37.2152L28.9337 37.2042L28.9319 37.1922L28.9318 37.192C28.9312 37.1881 28.9306 37.1843 28.9301 37.1804C28.9295 37.1766 28.929 37.1729 28.9285 37.1692V37.0714V37.0023C28.9295 36.9927 28.9295 36.9841 28.9295 36.9745L28.9324 35.5534C28.9324 35.5206 28.9339 35.4884 28.9355 35.4558L28.9355 35.4558L28.9371 35.422V33.6289C28.9426 33.4859 28.8737 33.3709 28.8039 33.2547L28.7943 33.2386C28.7188 33.1133 28.6451 32.9871 28.5714 32.861C28.5345 32.7979 28.4976 32.7348 28.4606 32.6719C28.4524 32.6561 28.4445 32.64 28.4366 32.6239C28.4287 32.6079 28.4208 32.5918 28.4126 32.576V32.5731C28.405 32.5578 28.3973 32.5424 28.3896 32.528C28.3647 32.4763 28.3388 32.4235 28.3129 32.3717L28.2928 32.3306L28.2726 32.2893C28.2721 32.285 28.2714 32.2809 28.2707 32.2768V32.2768C28.27 32.2727 28.2693 32.2687 28.2688 32.2643C28.2646 32.2599 28.2604 32.2553 28.2562 32.2507C28.2532 32.2474 28.2502 32.2441 28.2472 32.2409C28.24 32.2329 28.2328 32.225 28.2256 32.2174L28.2183 32.1981L28.2079 32.1713C28.2019 32.156 28.1959 32.1406 28.1902 32.1253C28.1686 32.0771 28.1467 32.0292 28.1248 31.9814L28.1247 31.9811L28.0799 31.8827C28.067 31.8475 28.054 31.8123 28.0409 31.7771L28.0406 31.7763C28.0274 31.7408 28.0142 31.7053 28.0012 31.6698C27.9955 31.6535 27.9888 31.6363 27.983 31.62L27.9495 31.5361L27.9159 31.4522C27.8877 31.3654 27.859 31.2788 27.8303 31.1923C27.7646 30.9938 27.6989 30.7955 27.6388 30.5958C27.6151 30.5163 27.6032 30.4331 27.5912 30.3497L27.5912 30.3497C27.5857 30.3115 27.5802 30.2732 27.5736 30.2353L27.4556 30.4021L27.4522 30.4236L27.4499 30.4376L27.4436 30.4764L27.4332 30.5423C27.4267 30.5836 27.4202 30.6247 27.4134 30.6658L27.4106 32.7678V34.8237L27.4117 34.8476C27.4126 34.8636 27.4134 34.8796 27.4134 34.8956V34.9665L27.4123 35.031L27.4123 35.0311C27.4114 35.0735 27.4106 35.1157 27.4106 35.1583C27.4113 35.2892 27.4124 35.4201 27.4135 35.551C27.4154 35.7691 27.4173 35.9873 27.4173 36.2055C27.4167 36.5507 27.4151 36.8959 27.4135 37.2411C27.4124 37.4712 27.4113 37.7014 27.4106 37.9315L27.4134 37.9555V38.0264C27.413 38.0735 27.4123 38.1209 27.4115 38.1683C27.4108 38.2165 27.4101 38.2648 27.4096 38.3131V38.409V38.457C27.4672 38.6916 27.3213 38.812 27.1756 38.9323L27.1756 38.9324C27.1539 38.9502 27.1323 38.9681 27.1114 38.9863C27.0605 39.031 27.0072 39.0729 26.9538 39.1148L26.9537 39.1149L26.9536 39.1149L26.9535 39.115L26.9535 39.115C26.9245 39.1378 26.8955 39.1606 26.8669 39.1838C26.7604 39.2708 26.6546 39.3586 26.5488 39.4464C26.3372 39.622 26.1256 39.7975 25.9089 39.9663C25.7036 40.126 25.4942 40.2803 25.2847 40.4346L25.2846 40.4347L25.2843 40.4349C25.1418 40.5399 24.9992 40.6449 24.858 40.7516C24.7964 40.7976 24.7397 40.8489 24.6739 40.9084L24.6738 40.9084C24.6422 40.9369 24.6085 40.9674 24.5712 41V39.0304L24.5697 38.6092C24.5681 38.19 24.5664 37.7712 24.5664 37.3523C24.5657 37.1111 24.5674 36.8693 24.5691 36.6279L24.5703 36.4481C24.5699 36.341 24.5689 36.2342 24.568 36.1274L24.568 36.1269L24.568 36.1265C24.5667 35.9838 24.5655 35.8412 24.5655 35.6982C24.5636 34.9832 24.5636 34.2692 24.5636 33.5551V33.5541C24.5636 33.5226 24.5653 33.4907 24.567 33.459C24.5678 33.4433 24.5687 33.4277 24.5693 33.4122C24.5686 33.2738 24.5675 33.1353 24.5664 32.9968L24.5664 32.9964V32.9963C24.5645 32.7654 24.5626 32.5343 24.5626 32.3037C24.562 31.4622 24.5625 30.6204 24.563 29.7785V29.7783V29.7782C24.5633 29.2165 24.5636 28.6548 24.5636 28.0931C24.5636 28.0642 24.5653 28.0348 24.567 28.0056C24.5678 27.9913 24.5687 27.9769 24.5693 27.9627C24.5687 27.8111 24.5678 27.6595 24.567 27.5077L24.567 27.5069C24.5653 27.2019 24.5636 26.8967 24.5636 26.5914C24.5616 25.0399 24.5607 23.4894 24.5607 21.9379C24.5607 21.9168 24.5624 21.8957 24.5641 21.8746C24.565 21.864 24.5658 21.8535 24.5664 21.8429L24.5643 21.3103L24.5643 21.3098C24.5628 20.954 24.5613 20.5981 24.5607 20.2425C24.5601 20.0601 24.5608 19.878 24.5616 19.696V19.6958V19.6957V19.6954V19.6952C24.5621 19.5589 24.5626 19.4227 24.5626 19.2865L24.5608 19.2809C24.5593 19.2764 24.5578 19.2721 24.5578 19.2673C24.5578 19.2654 24.5599 19.264 24.5621 19.2624C24.5633 19.2615 24.5645 19.2606 24.5655 19.2596C24.5741 19.257 24.5836 19.2528 24.5931 19.2486L24.5931 19.2486L24.5932 19.2486C24.6142 19.2393 24.6354 19.23 24.648 19.2366C24.7826 19.3088 24.9159 19.3831 25.0492 19.4575C25.2862 19.5896 25.523 19.7217 25.766 19.8407C26.1639 20.0348 26.5681 20.2163 26.972 20.3975C27.0889 20.45 27.2057 20.5024 27.3223 20.5551C27.3991 20.5896 27.4374 20.6194 27.4211 20.721C27.4049 20.8195 27.4068 20.9209 27.4086 21.0221V21.0222V21.0222V21.0223C27.4094 21.0648 27.4102 21.1074 27.4096 21.1496V21.3405V21.4124V21.9379L27.4096 21.938C27.4106 21.9859 27.4115 22.0338 27.4115 22.0817V22.1536L27.4115 22.1538C27.4106 22.2017 27.4096 22.2496 27.4096 22.2975V22.4164C27.4102 22.5883 27.4111 22.7602 27.4119 22.9322C27.4137 23.2761 27.4154 23.6201 27.4154 23.964C27.416 24.3182 27.4143 24.6729 27.4125 25.0273L27.4125 25.0277C27.4118 25.1693 27.4111 25.3108 27.4106 25.4523L27.4109 25.6997C27.4112 26.0021 27.4115 26.3047 27.4182 26.6068C27.4189 26.6601 27.4385 26.7129 27.4582 26.766C27.4672 26.7902 27.4762 26.8145 27.4834 26.8388C27.543 26.8586 27.6024 26.8788 27.6619 26.8991L27.6621 26.8991C27.7672 26.9349 27.8723 26.9707 27.9782 27.0038C28.146 27.0556 28.3158 27.1054 28.4865 27.1495C28.7703 27.2234 29.0541 27.2943 29.3389 27.3634L29.5191 27.407L29.5191 27.407L29.5191 27.407C29.789 27.4726 30.0591 27.5382 30.3304 27.5954C30.554 27.6428 30.7791 27.6827 31.0043 27.7227L31.0044 27.7227C31.094 27.7386 31.1835 27.7545 31.273 27.7709L31.2731 27.7709L31.2732 27.7709C31.3057 27.7767 31.3383 27.7824 31.3718 27.7862C31.4017 27.7897 31.4308 27.7938 31.4605 27.7981L31.4715 27.7997C31.5396 27.699 31.5895 27.5916 31.6298 27.4804C31.668 27.3749 31.6988 27.2664 31.7295 27.1579L31.7295 27.1579L31.7295 27.1579C31.7528 27.0759 31.776 26.9941 31.8024 26.9136C31.8271 26.8385 31.8486 26.7624 31.8701 26.6861L31.8701 26.686C31.8896 26.6173 31.909 26.5484 31.9309 26.4802C31.9386 26.4563 31.9564 26.4359 31.9742 26.4154L31.9742 26.4154C31.9828 26.4055 31.9914 26.3956 31.9989 26.3853C32.0147 26.3256 32.0333 26.2663 32.0519 26.207C32.093 26.0756 32.1341 25.9444 32.1447 25.8109C32.1538 25.6931 32.1915 25.5815 32.229 25.4702C32.2829 25.3108 32.3365 25.1522 32.3048 24.9776C32.3008 24.9525 32.2876 24.9289 32.2744 24.9053C32.269 24.8955 32.2636 24.8858 32.2588 24.876C32.2244 24.8721 32.1898 24.8685 32.1553 24.8649C32.061 24.8552 31.9667 24.8454 31.8733 24.8299C31.5972 24.7849 31.321 24.7369 31.0458 24.6871C30.8741 24.6564 30.8473 24.619 30.8473 24.4377C30.8473 24.4238 30.8468 24.4099 30.8463 24.396C30.8458 24.3821 30.8454 24.3682 30.8454 24.3543L30.8428 24.3494C30.8405 24.3452 30.8381 24.3409 30.8367 24.3361C30.8361 24.3347 30.8383 24.3329 30.8406 24.3309L30.8435 24.3284V23.9966C30.8406 23.9899 30.8367 23.9842 30.8358 23.9775C30.8358 23.9762 30.8378 23.9746 30.84 23.9727C30.8412 23.9718 30.8425 23.9708 30.8435 23.9698C30.8463 23.9142 30.8482 23.8595 30.8502 23.8039V22.6571C30.8494 22.5377 30.8489 22.4184 30.8485 22.299C30.8478 22.1202 30.8471 21.9413 30.8454 21.7624C30.8444 21.6665 30.8847 21.6675 30.9662 21.6866C31.3018 21.7672 31.6393 21.842 31.9778 21.9129C32.2099 21.9618 32.4429 22.0088 32.6769 22.0424C32.9359 22.0796 33.1964 22.1104 33.4566 22.1411L33.4568 22.1411C33.5588 22.1532 33.6606 22.1652 33.7624 22.1776C34.1114 22.2198 34.4614 22.261 34.8114 22.3023ZM22.7895 15.0869C22.5646 15.1846 22.3396 15.2823 22.1146 15.3789H22.1137C21.8471 15.4931 21.5805 15.6062 21.313 15.7174C21.283 15.7305 21.2503 15.7369 21.2176 15.7433C21.2023 15.7463 21.187 15.7492 21.172 15.7529C21.1745 15.7407 21.1768 15.7284 21.1792 15.7161C21.1849 15.6859 21.1907 15.6556 21.1989 15.6263C21.209 15.5879 21.2191 15.5495 21.2292 15.5111C21.2772 15.328 21.3252 15.1452 21.3791 14.9637C21.4239 14.8135 21.472 14.6641 21.5202 14.5148C21.5443 14.4401 21.5684 14.3654 21.592 14.2906C21.604 14.2509 21.6162 14.2114 21.6284 14.1718C21.6601 14.0688 21.6918 13.9659 21.7196 13.8619C21.7306 13.8207 21.7371 13.7783 21.7435 13.7359C21.75 13.6934 21.7565 13.651 21.7675 13.6098C21.8643 13.2578 21.9631 12.9059 22.0628 12.555C22.1303 12.3174 22.1983 12.0805 22.2665 11.8432C22.2817 11.7903 22.2969 11.7373 22.3122 11.6843C22.3142 11.6767 22.3202 11.6702 22.3262 11.6635C22.3287 11.6609 22.3311 11.6582 22.3333 11.6555L22.3735 11.5404C22.3738 11.5379 22.3743 11.5353 22.3747 11.5328C22.3756 11.5276 22.3764 11.5225 22.3764 11.5174C22.3886 11.4688 22.4005 11.4201 22.4123 11.3714C22.4366 11.2712 22.4609 11.1712 22.4886 11.0725C22.5222 10.9526 22.5605 10.943 22.667 11.0092C22.9517 11.1856 23.2644 11.2585 23.5952 11.3045C23.84 11.3387 24.0695 11.2947 24.2998 11.2505C24.3734 11.2363 24.4472 11.2222 24.5215 11.2106C24.5945 11.178 24.6677 11.1454 24.743 11.1119C24.8515 11.0635 24.9644 11.0133 25.0872 10.9584C25.1004 11.0111 25.1131 11.0636 25.1258 11.1161C25.1537 11.2317 25.1815 11.3467 25.2138 11.4608C25.2542 11.6035 25.2983 11.7446 25.3426 11.886C25.3572 11.9328 25.3719 11.9796 25.3864 12.0266C25.3879 12.0324 25.3907 12.0376 25.3936 12.0429C25.3965 12.0482 25.3994 12.0534 25.4008 12.0592L25.5964 12.8359C25.6034 12.8631 25.6129 12.8899 25.6224 12.9164C25.6259 12.9264 25.6295 12.9363 25.6329 12.9462C25.6478 12.9887 25.663 13.031 25.6782 13.0731C25.6894 13.104 25.7005 13.1349 25.7115 13.1658L25.7316 13.2367C25.7407 13.2727 25.7501 13.3087 25.7594 13.3447C25.7688 13.3806 25.7781 13.4166 25.7872 13.4525C25.8112 13.5647 25.8352 13.6759 25.8592 13.7872C25.8673 13.8111 25.8757 13.8348 25.8841 13.8586C25.8925 13.8823 25.9009 13.9061 25.909 13.93L25.9972 14.2187C26.0063 14.2455 26.0157 14.2721 26.025 14.2987C26.0344 14.3253 26.0437 14.352 26.0529 14.3788L26.0529 14.3791C26.1066 14.5564 26.1603 14.7337 26.213 14.912C26.282 15.145 26.3511 15.3789 26.4182 15.6129C26.4256 15.6385 26.4288 15.6656 26.432 15.6928C26.4325 15.6972 26.433 15.7016 26.4335 15.7059C26.4412 15.7769 26.4259 15.8085 26.3444 15.7721C25.9918 15.6145 25.638 15.4596 25.2839 15.3046C25.2113 15.2728 25.1387 15.241 25.0661 15.2092L24.9981 15.1891C24.9885 15.1833 24.9789 15.1773 24.9693 15.1713C24.9597 15.1653 24.9501 15.1594 24.9405 15.1536C24.9376 15.1546 24.9348 15.1546 24.9319 15.1536C24.93 15.1526 24.9281 15.1498 24.9261 15.1469C24.9208 15.1427 24.915 15.1389 24.9091 15.135C24.9055 15.1326 24.9019 15.1302 24.8983 15.1277C24.8346 15.1023 24.7711 15.0767 24.7076 15.051C24.644 15.0254 24.5805 14.9997 24.5167 14.9743C24.4671 14.9541 24.417 14.9349 24.3668 14.9156C24.248 14.8701 24.129 14.8246 24.0171 14.7652C23.8618 14.6828 23.7189 14.678 23.5664 14.7537C23.5511 14.7624 23.5348 14.7681 23.5175 14.7739C23.5002 14.7796 23.483 14.7854 23.4667 14.7911C23.4557 14.7954 23.4444 14.7998 23.4331 14.8041C23.4219 14.8084 23.4106 14.8127 23.3996 14.817C23.3727 14.8295 23.3461 14.842 23.3195 14.8544C23.2929 14.8669 23.2663 14.8794 23.2394 14.8918C23.0895 14.9566 22.9395 15.0218 22.7895 15.0869Z" fill="url(#paint0_linear_811_4574)"/>
<defs>
<linearGradient id="paint0_linear_811_4574" x1="23.9" y1="7" x2="23.9" y2="41" gradientUnits="userSpaceOnUse">
<stop stop-color="#DF9242"/>
<stop offset="1" stop-color="#AA6424"/>
</linearGradient>
</defs>
</svg>
