<svg width="48" height="48" viewBox="0 0 48 48" fill="none" xmlns="http://www.w3.org/2000/svg">
<circle cx="24" cy="24" r="23.5" fill="#FCFCFC" stroke="#F3F4F5"/>
<path d="M10.1605 22.2601L19.3674 9L24.0013 15.7179L19.3018 22.4381H10.2541C10.2336 22.4377 10.2135 22.4318 10.196 22.421C10.1785 22.4102 10.1643 22.3949 10.1547 22.3768C10.1451 22.3586 10.1406 22.3382 10.1416 22.3176C10.1426 22.2971 10.1492 22.2772 10.1605 22.2601Z" fill="#7E49FC"/>
<path d="M37.8397 22.2601L28.6328 9L24.0012 15.7179L28.6983 22.4381H37.746C37.7665 22.4377 37.7866 22.4318 37.8041 22.421C37.8216 22.4102 37.8359 22.3949 37.8454 22.3768C37.855 22.3586 37.8595 22.3382 37.8585 22.3176C37.8575 22.2971 37.851 22.2772 37.8397 22.2601Z" fill="#7E49FC"/>
<path d="M37.9988 24.2728C38.0228 26.1264 37.6785 27.9663 36.9857 29.6858C36.2929 31.4052 35.2656 32.97 33.9633 34.2892C32.661 35.6084 31.1097 36.6559 29.3994 37.3708C27.689 38.0858 25.8538 38.4539 24 38.4539C22.1463 38.4539 20.311 38.0858 18.6007 37.3708C16.8903 36.6559 15.339 35.6084 14.0367 34.2892C12.7344 32.97 11.7071 31.4052 11.0143 29.6858C10.3216 27.9663 9.9772 26.1264 10.0012 24.2728H18.899C18.8845 24.9513 19.0055 25.6258 19.2551 26.2569C19.5047 26.8879 19.8777 27.4628 20.3524 27.9477C20.8271 28.4327 21.3938 28.818 22.0194 29.0811C22.6449 29.3441 23.3167 29.4796 23.9953 29.4796C24.6739 29.4796 25.3457 29.3441 25.9713 29.0811C26.5968 28.818 27.1636 28.4327 27.6382 27.9477C28.1129 27.4628 28.486 26.8879 28.7356 26.2569C28.9851 25.6258 29.1062 24.9513 29.0917 24.2728H37.9988Z" fill="#0066FF"/>
</svg>
