<?xml version="1.0" encoding="utf-8"?>
<!-- Generator: Adobe Illustrator 27.7.0, SVG Export Plug-In . SVG Version: 6.00 Build 0)  -->
<svg version="1.1" id="Layer_1" xmlns="http://www.w3.org/2000/svg" xmlns:xlink="http://www.w3.org/1999/xlink" x="0px" y="0px"
	 viewBox="0 0 48 48" style="enable-background:new 0 0 48 48;" xml:space="preserve">
<style type="text/css">
	.st0{fill:#F3F3FA;}
	.st1{opacity:0.6;fill:#E10093;enable-background:new    ;}
	.st2{opacity:0.5;fill:#E10093;enable-background:new    ;}
	.st3{opacity:0.9;fill:#E10093;enable-background:new    ;}
</style>
<circle class="st0" cx="24" cy="24" r="24"/>
<path class="st1" d="M14.5,16.3c0-1,0.8-1.8,1.8-1.8h15.4c1,0,1.8,0.8,1.8,1.8v15.4c0,1-0.8,1.8-1.8,1.8H16.3c-1,0-1.8-0.8-1.8-1.8
	C14.5,31.7,14.5,16.3,14.5,16.3z"/>
<path class="st2" d="M18,19.8c0-1,0.8-1.8,1.8-1.8h15.4c1,0,1.8,0.8,1.8,1.8v15.4c0,1-0.8,1.8-1.8,1.8H19.8c-1,0-1.8-0.8-1.8-1.8
	V19.8z"/>
<path class="st3" d="M11,12.8c0-1,0.8-1.8,1.8-1.8h15.4c1,0,1.8,0.8,1.8,1.8v15.4c0,1-0.8,1.8-1.8,1.8H12.8c-1,0-1.8-0.8-1.8-1.8
	V12.8z"/>
</svg>
