<?xml version="1.0" encoding="utf-8"?>
<svg viewBox="100 100 400 400" width="400" height="400" xmlns="http://www.w3.org/2000/svg">
  <path opacity="0.6" d="M 221.051 236.854 C 221.051 228.68 227.68 222.051 235.851 222.051 L 363.504 222.051 C 371.678 222.051 378.304 228.68 378.304 236.854 L 378.304 364.504 C 378.304 372.678 371.678 379.307 363.504 379.307 L 235.851 379.307 C 227.68 379.307 221.051 372.678 221.051 364.504 L 221.051 236.854 Z" fill="#ff0093" style=""/>
  <path opacity="0.5" d="M 250.103 265.9 C 250.103 257.728 256.728 251.1 264.902 251.1 L 392.555 251.1 C 400.727 251.1 407.355 257.728 407.355 265.9 L 407.355 393.552 C 407.355 401.727 400.727 408.352 392.555 408.352 L 264.902 408.352 C 256.728 408.352 250.103 401.727 250.103 393.552 L 250.103 265.9 Z" fill="#ff0093" style=""/>
  <path opacity="0.9" d="M 192 207.8 C 192 199.625 198.625 193 206.8 193 L 334.453 193 C 342.627 193 349.252 199.625 349.252 207.8 L 349.252 335.453 C 349.252 343.627 342.627 350.252 334.453 350.252 L 206.8 350.252 C 198.625 350.252 192 343.627 192 335.453 L 192 207.8 Z" fill="#ff0093" style=""/>
</svg>