<svg width="48" height="48" viewBox="0 0 48 48" fill="none" xmlns="http://www.w3.org/2000/svg">
<path d="M24.0017 2.07213e-07C10.7473 -0.00172294 0.00172335 10.7438 2.07213e-07 23.9983C-0.00172294 37.2527 10.7438 47.9983 23.9983 48C37.2527 48.0017 47.9983 37.2562 48 24.0017V23.9983C47.9983 10.7455 37.2545 0.00172335 24.0017 2.07213e-07Z" fill="#780EFF"/>
<path d="M0.447917 23.9984C0.449608 10.9912 10.9947 0.446226 24.0016 0.447917C37.0071 0.449608 47.5504 10.9929 47.5521 23.9983V24.0016C47.5504 37.0088 37.0053 47.5538 23.9984 47.5521C10.9912 47.5504 0.446226 37.0053 0.447917 23.9984Z" stroke="#11141A" stroke-opacity="0.1" stroke-width="0.895833"/>
<path d="M23.7284 28.0735V22.6842L9.20605 30.2458H36.165V15.1226L23.7284 28.0735Z" fill="white"/>
</svg>
