<svg width="48" height="48" viewBox="0 0 48 48" fill="none" xmlns="http://www.w3.org/2000/svg">
<path d="M24 48C37.2548 48 48 37.2548 48 24C48 10.7452 37.2548 0 24 0C10.7452 0 0 10.7452 0 24C0 37.2548 10.7452 48 24 48Z" fill="url(#paint0_linear_814_8486)"/>
<path d="M30.3 17.565C30.795 17.565 31.26 17.76 31.62 18.105L33.615 20.1C33.885 20.37 34.26 20.52 34.635 20.52C34.965 20.52 35.28 20.4 35.535 20.19C35.835 19.92 36.015 19.545 36.015 19.14C36.015 18.765 35.865 18.42 35.61 18.165L33.645 16.2C32.76 15.315 31.575 14.82 30.315 14.82C29.055 14.82 27.87 15.315 26.985 16.2L13.725 29.46C13.125 30.06 12.345 30.375 11.505 30.375C10.725 30.375 9.99001 30.09 9.43501 29.55C8.82001 28.965 8.49001 28.185 8.49001 27.345C8.49001 26.505 8.80501 25.77 9.37501 25.2L9.97501 24.6L11.1 25.725V21.405H6.78001L8.01001 22.635L7.47001 23.175C5.17501 25.47 5.14501 29.175 7.39501 31.44C8.49001 32.55 9.96001 33.15 11.52 33.15C13.08 33.15 14.535 32.55 15.63 31.455L28.98 18.105C29.325 17.76 29.79 17.565 30.3 17.565Z" fill="white"/>
<path d="M40.5299 23.19L39.5399 22.2L40.7699 20.97H36.4499V25.29L37.5749 24.165L38.6249 25.215C39.1949 25.785 39.5099 26.55 39.5099 27.36C39.5099 28.17 39.1799 28.98 38.5649 29.565C38.0099 30.09 37.2749 30.39 36.4949 30.39C35.6549 30.39 34.8599 30.06 34.2749 29.475L27.0299 22.23L25.0649 24.195L32.3549 31.485C33.4499 32.58 34.9199 33.195 36.4649 33.195C38.0099 33.195 39.4949 32.58 40.5899 31.485C42.8399 29.22 42.8099 25.515 40.5149 23.22L40.5299 23.19Z" fill="white"/>
<path d="M12.06 20.61C12.3 20.82 12.63 20.94 12.96 20.94C13.335 20.94 13.71 20.79 13.98 20.52L16.395 18.105C16.74 17.76 17.205 17.565 17.715 17.565C18.225 17.565 18.675 17.76 19.035 18.105L20.97 20.055L22.935 18.09L21.045 16.2C20.16 15.315 18.975 14.82 17.715 14.82C16.455 14.82 15.27 15.315 14.385 16.2L12 18.585C11.745 18.84 11.595 19.2 11.595 19.56C11.595 19.965 11.775 20.34 12.075 20.61H12.06Z" fill="white"/>
<defs>
<linearGradient id="paint0_linear_814_8486" x1="0" y1="24" x2="48" y2="24" gradientUnits="userSpaceOnUse">
<stop stop-color="#734CE2"/>
<stop offset="1" stop-color="#524DFB"/>
</linearGradient>
</defs>
</svg>
