<svg width="48" height="48" viewBox="0 0 48 48" fill="none" xmlns="http://www.w3.org/2000/svg">
<path d="M24 48C37.2548 48 48 37.2548 48 24C48 10.7452 37.2548 0 24 0C10.7452 0 0 10.7452 0 24C0 37.2548 10.7452 48 24 48Z" fill="white"/>
<path d="M47.5 24C47.5 36.9787 36.9787 47.5 24 47.5C11.0213 47.5 0.5 36.9787 0.5 24C0.5 11.0213 11.0213 0.5 24 0.5C36.9787 0.5 47.5 11.0213 47.5 24Z" stroke="#11141A" stroke-opacity="0.1"/>
<path d="M33.6646 14.4788H30.2232C30.0098 14.4788 29.8168 14.6064 29.7334 14.803L24.4385 27.2635C24.2741 27.6504 23.7257 27.6504 23.5614 27.2635L18.2666 14.803C18.183 14.6064 17.9902 14.4788 17.7766 14.4788H14.3352C14.0627 14.4788 13.8419 14.6998 13.8419 14.9722V32.6505C13.8419 32.9231 14.0628 33.1439 14.3352 33.1439H17.0906C17.3632 33.1439 17.5839 32.9229 17.5839 32.6505V23.7662C17.5839 23.1678 18.408 23.0057 18.6347 23.5595L22.3929 32.7432C22.4921 32.9855 22.7278 33.1438 22.9896 33.1438H25.0098C25.2717 33.1438 25.5076 32.9855 25.6066 32.7432L29.3649 23.5595C29.5916 23.0056 30.4156 23.1678 30.4156 23.7662V26.9927C30.4156 27.2376 30.6141 27.4362 30.8591 27.4362H33.7143C33.9592 27.4362 34.1578 27.2377 34.1578 26.9927V14.9719C34.1578 14.6994 33.937 14.4788 33.6646 14.4788Z" fill="#232843"/>
<path d="M32.2872 33.605C33.5751 33.605 34.6192 32.5609 34.6192 31.2728C34.6192 29.9849 33.5751 28.9408 32.2872 28.9408C30.9992 28.9408 29.9551 29.9849 29.9551 31.2728C29.9551 32.5609 30.9992 33.605 32.2872 33.605Z" fill="#00BFFF"/>
</svg>
