<?xml version="1.0" encoding="utf-8"?>
<!-- Generator: Adobe Illustrator 27.7.0, SVG Export Plug-In . SVG Version: 6.00 Build 0)  -->
<svg version="1.1" id="Layer_1" xmlns="http://www.w3.org/2000/svg" xmlns:xlink="http://www.w3.org/1999/xlink" x="0px" y="0px"
	 viewBox="0 0 48 48" style="enable-background:new 0 0 48 48;" xml:space="preserve">
<style type="text/css">
	.st0{fill:#F3F3FA;}
	.st1{fill:url(#SVGID_1_);}
	.st2{fill:#2D2F31;}
	.st3{fill:#363637;}
</style>
<circle class="st0" cx="24" cy="24" r="24"/>
<linearGradient id="SVGID_1_" gradientUnits="userSpaceOnUse" x1="23.6" y1="-2074.8892" x2="23.6" y2="-2086.2444" gradientTransform="matrix(1 0 0 -1 0 -2060)">
	<stop  offset="0" style="stop-color:#D52F2D"/>
	<stop  offset="1" style="stop-color:#8C2729"/>
</linearGradient>
<path class="st1" d="M28.8,19.9c0.1,1.6,0.3,4.3,0.4,5.6c0,0.1,0,0.2,0,0.3c0,0.1-0.1,0.2-0.2,0.2c-0.1,0.1-0.1,0.1-0.2,0.2
	c-0.1,0-0.2,0.1-0.3,0c-1,0-2.8-0.1-5-0.1c-2.1,0-3.9,0-4.8,0.1c-0.1,0-0.2,0-0.3,0c-0.1,0-0.2-0.1-0.2-0.2
	c-0.1-0.1-0.1-0.2-0.2-0.2c0-0.1,0-0.2,0-0.3c0.1-1.3,0.3-4,0.4-5.6c0-1.3,0.6-2.6,1.6-3.6c1-0.9,2.3-1.5,3.6-1.4
	c1.4,0,2.7,0.5,3.6,1.4C28.2,17.3,28.8,18.6,28.8,19.9z M23.6,17.4c-0.6,0-1.2,0.2-1.7,0.5s-0.9,0.8-1.1,1.4s-0.3,1.2-0.2,1.8
	c0.1,0.6,0.4,1.1,0.8,1.6c0.4,0.4,1,0.7,1.6,0.8c0.6,0.1,1.2,0.1,1.8-0.2c0.6-0.2,1-0.6,1.4-1.1c0.3-0.5,0.5-1.1,0.5-1.7
	c0-0.8-0.3-1.6-0.9-2.2C25.2,17.7,24.4,17.4,23.6,17.4L23.6,17.4z"/>
<path class="st2" d="M23.6,18.7c0.2,0.2,0.3,0.5,0.3,0.7s0,0.3-0.1,0.4s-0.2,0.3-0.3,0.4c-0.1,0.1-0.2,0.2-0.4,0.2
	c-0.1,0.1-0.3,0.1-0.5,0.1s-0.4,0-0.5-0.1c-0.2-0.1-0.3-0.2-0.4-0.3c0,0.1,0,0.2,0,0.3c0,1,0.8,1.8,1.9,1.8c1,0,1.9-0.8,1.9-1.8
	S24.6,18.7,23.6,18.7z"/>
<path class="st2" d="M26.4,16.8C26.4,16.8,26.3,16.8,26.4,16.8c-0.1,0-0.1,0-0.1,0s0,0,0-0.1c0,0,0,0,0-0.1c0-0.4,0.1-1.2,1.1-2.1
	c0.7-0.6,1.7-0.8,3-0.7c0,0,0,0,0.1,0c0,0,0,0,0.1,0c0,0,0,0,0,0.1c0,0,0,0,0,0.1c0,0,0,0.1-0.1,0.1h-0.1c-1.1-0.2-2,0-2.7,0.6
	c-0.9,0.8-1,1.5-1,1.8v0.1C26.5,16.8,26.4,16.8,26.4,16.8L26.4,16.8z"/>
<path class="st2" d="M30,14.4c0.3,0,0.5-0.2,0.5-0.5s-0.2-0.5-0.5-0.5s-0.5,0.2-0.5,0.5S29.7,14.4,30,14.4z"/>
<path class="st2" d="M21,16.9L21,16.9c0.1,0,0.1,0,0.1,0s0,0,0-0.1c0,0,0,0,0-0.1c0-0.4-0.1-1.3-1.1-2.2c-0.7-0.6-1.7-0.8-3-0.7
	c0,0,0,0-0.1,0c0,0,0,0-0.1,0c0,0,0,0,0,0.1c0,0,0,0,0,0.1c0,0,0,0.1,0.1,0.1H17c1.1-0.2,2,0,2.7,0.6c0.9,0.8,1,1.6,1,2v0.1
	C20.9,16.8,20.9,16.9,21,16.9L21,16.9z"/>
<path class="st2" d="M17.5,14.4c0.3,0,0.5-0.2,0.5-0.5s-0.2-0.5-0.5-0.5S17,13.6,17,13.9S17.2,14.4,17.5,14.4z"/>
<path class="st3" d="M40.2,32.5c0-1.6-4-4.2-4-4.2l0,0c0.7-2.7,1-3.9,1.1-5.6c0.1-4-0.9-7.4-3.4-10.4C31.4,9.6,27.6,8,23.6,8
	c-4.3,0-7.5,1.6-10,4.3C11.2,15,10,17.9,10,22.7c0,1.3,0.3,3.6,1,5.6l0,0c0,0-4,2.5-4,4.3c0,0.5,2.1,1.2,6.6,1.4l-2.5,3.7
	c-0.1,0.3,0,0.7,0.2,0.9c0.3,0.2,0.6,0.3,0.9,0.3c0.5,0,0.6-0.1,0.8-0.4l2.5-4.3c2.6,0.1,4.3,0.2,7.3,0.2v4.9c0,0.3,0.1,0.8,0.9,0.8
	c0.7,0,0.8-0.5,0.8-0.8v-4.9c3,0,4.6,0,7.3-0.1l2.6,4.2c0,0.1,0.1,0.2,0.3,0.3c0.1,0.1,0.3,0.1,0.4,0.1c0.3,0,0.5-0.1,0.7-0.2
	c0.3-0.1,0.3-0.6,0.2-1L33.5,34C37.8,33.6,40.2,33,40.2,32.5z M14.6,32.1c-0.4,0-0.8-0.2-1.1-0.5s-0.4-0.7-0.4-1.1
	c0-0.8,0.7-1.4,1.5-1.4s1.5,0.6,1.5,1.4c0,0.4-0.1,0.8-0.4,1.1C15.4,31.9,15,32.1,14.6,32.1z M23.6,32.2c-0.3,0-0.6-0.1-0.9-0.2
	c-0.3-0.2-0.5-0.4-0.6-0.7c-0.1-0.3-0.1-0.6,0-0.9s0.2-0.6,0.4-0.8c0.2-0.2,0.5-0.4,0.8-0.4c0.3-0.1,0.6,0,0.9,0.1s0.5,0.3,0.7,0.6
	c0.2,0.3,0.3,0.5,0.3,0.8c0,0.4-0.1,0.8-0.4,1.1C24.4,32,24,32.2,23.6,32.2z M32.6,32.2c-0.3,0-0.6-0.1-0.9-0.2
	c-0.3-0.2-0.5-0.4-0.6-0.7C31,31.1,31,30.8,31,30.5c0.1-0.3,0.2-0.6,0.4-0.8c0.2-0.2,0.5-0.4,0.8-0.4c0.3-0.1,0.6,0,0.9,0.1
	c0.3,0.1,0.5,0.3,0.7,0.6c0.2,0.3,0.3,0.5,0.3,0.8c0,0.4-0.1,0.8-0.4,1.1C33.3,32.1,33,32.2,32.6,32.2z M34.8,27.8
	c-2.8-0.7-7.1-0.7-11.2-0.7s-8.1-0.1-11.2,0.7c-0.5-1.9-0.8-3.8-0.9-5.3c-0.2-6.8,4.4-13.3,12.1-13.3s12.5,6.5,12.2,13.3
	C35.7,24.7,35.1,26.7,34.8,27.8z"/>
</svg>
