<?xml version="1.0" encoding="utf-8"?>
<!-- Generator: Adobe Illustrator 27.7.0, SVG Export Plug-In . SVG Version: 6.00 Build 0)  -->
<svg version="1.1" id="Layer_1" xmlns="http://www.w3.org/2000/svg" xmlns:xlink="http://www.w3.org/1999/xlink" x="0px" y="0px"
	 viewBox="0 0 48 48" style="enable-background:new 0 0 48 48;" xml:space="preserve">
<style type="text/css">
	.st0{fill:#F3F3FA;}
	.st1{fill:#0A6E5C;}
	.st2{fill:#21BF73;}
</style>
<circle class="st0" cx="24" cy="24" r="24"/>
<path class="st1" d="M30.1,25.6L26,29.7c-0.2,0.2-0.3,0.4-0.3,0.6c0,0.2,0.1,0.5,0.3,0.6l3.1,3.1c0.3,0.3,0.6,0.4,1,0.4
	s0.7-0.1,1-0.4l9.5-9.4c0.1-0.1,0.2-0.3,0.3-0.4c0.1-0.2,0.1-0.3,0.1-0.5s0-0.4-0.1-0.5c-0.1-0.2-0.2-0.3-0.3-0.4l-9.5-9.4
	c-0.3-0.3-0.6-0.4-1-0.4c-0.4,0-0.7,0.1-1,0.4L26,16.5c-0.2,0.2-0.3,0.4-0.3,0.6c0,0.2,0.1,0.5,0.3,0.6l4.1,4.1
	c0.3,0.2,0.5,0.5,0.6,0.9c0.1,0.3,0.2,0.7,0.2,1c0,0.4-0.1,0.7-0.2,1C30.6,25.1,30.4,25.4,30.1,25.6z"/>
<path class="st2" d="M17.9,25.6l4.1,4.1c0.2,0.2,0.3,0.4,0.3,0.6c0,0.2-0.1,0.5-0.3,0.6l-3.1,3.1c-0.3,0.3-0.6,0.4-1,0.4
	c-0.4,0-0.7-0.1-1-0.4l-9.5-9.4c-0.1-0.1-0.2-0.3-0.3-0.4C7,24.1,7,23.9,7,23.7s0-0.4,0.1-0.5c0.1-0.2,0.2-0.3,0.3-0.4l9.5-9.4
	c0.3-0.3,0.6-0.4,1-0.4c0.4,0,0.7,0.1,1,0.4l3.1,3.1c0.2,0.2,0.3,0.4,0.3,0.6c0,0.2-0.1,0.5-0.3,0.6l-4.1,4.1
	c-0.3,0.2-0.5,0.5-0.6,0.9c-0.1,0.3-0.2,0.7-0.2,1s0.1,0.7,0.2,1C17.4,25.1,17.6,25.4,17.9,25.6z"/>
<path class="st2" d="M19,24.5c-0.2-0.2-0.3-0.5-0.3-0.8s0.1-0.6,0.3-0.8l4.3-4.3c0.2-0.2,0.5-0.3,0.8-0.3c0.3,0,0.6,0.1,0.8,0.3
	L29,23c0.2,0.2,0.3,0.5,0.3,0.8s-0.1,0.6-0.3,0.8l-4.3,4.3c-0.2,0.2-0.5,0.3-0.8,0.3s-0.6-0.1-0.8-0.3L19,24.5z"/>
</svg>
