<svg width="48" height="48" viewBox="0 0 48 48" fill="none" xmlns="http://www.w3.org/2000/svg">
<circle cx="24" cy="24" r="24" fill="#F3F3FA"/>
<circle cx="24" cy="24" r="23.5" stroke="#11141A" stroke-opacity="0.1"/>
<path d="M37.8632 11.834L36.0089 10L15.1827 31.0753C13.6037 29.1457 12.6562 26.6829 12.6562 23.9971C12.6562 17.8142 17.6686 12.8017 23.8516 12.8017C25.5813 12.8017 27.2183 13.1958 28.6815 13.894L30.4691 12.0861C28.5105 10.9938 26.2535 10.3709 23.8516 10.3709C16.3272 10.3738 10.2283 16.4727 10.2283 23.9971C10.2283 27.358 11.4509 30.435 13.4704 32.8108L10.15 36.166L12.0043 38L32.6624 17.0956C34.1546 18.9963 35.0441 21.3924 35.0441 23.9971C35.0441 30.1801 30.0316 35.1925 23.8487 35.1925C22.203 35.1925 20.6442 34.8361 19.239 34.1987L17.4398 36.0211C19.352 37.041 21.5337 37.6233 23.8516 37.6233C31.376 37.6233 37.4749 31.5244 37.4749 24C37.4749 20.7202 36.3102 17.7127 34.3777 15.363L37.8632 11.8369V11.834Z" fill="#BE3FF5"/>
</svg>
