<?xml version="1.0" encoding="utf-8"?>
<!-- Generator: Adobe Illustrator 27.7.0, SVG Export Plug-In . SVG Version: 6.00 Build 0)  -->
<svg version="1.1" id="Layer_1" xmlns="http://www.w3.org/2000/svg" xmlns:xlink="http://www.w3.org/1999/xlink" x="0px" y="0px"
	 viewBox="0 0 48 48" style="enable-background:new 0 0 48 48;" xml:space="preserve">
<style type="text/css">
	.st0{fill:#F3F3FA;}
	.st1{fill:#8D8EF9;}
	.st2{fill:#51559C;}
</style>
<circle class="st0" cx="24" cy="24" r="24"/>
<path class="st1" d="M22.9,21.4c1.7,1.3,3.7,2.3,5.3,3.9c2.6,2.5,3.8,5.8,2.2,9.2c-1.7,3.6-5.8,6.4-10.5,5.2c-4-1-6.8-4.4-6.9-8.5
	c-0.1-1.9,0.3-3.6,1.3-5.2c0.2-0.3,0.2-0.4-0.1-0.6c-0.2-0.1-0.6-0.2-0.6-0.5s0.4-0.3,0.7-0.4c1.2-0.6,2.4-1.2,3.6-1.8
	c0.2-0.1,0.3-0.2,0.6-0.2c-0.1,1.8-0.1,3.6-0.2,5.4c-0.4-0.1-0.7-0.3-1-0.5s-0.4-0.2-0.6,0.1c-2,3.5-0.5,8.8,4,9.8
	c2.9,0.6,5.5-1,6.8-2.9c1.4-2.3,1.2-4.5-0.7-6.6c-0.4-0.4-0.8-0.8-1.3-1.3c-0.3-1-0.9-1.8-1.3-2.6C23.7,23,23.2,22.2,22.9,21.4z"/>
<path class="st2" d="M22.9,21.4c0.3,0.8,0.8,1.6,1.2,2.4c0.4,0.9,1,1.7,1.3,2.6c-1.2-0.8-2.4-1.6-3.5-2.4c-1.3-1-2.4-2.1-3.2-3.6
	c-1.1-2.1-1.3-4.3-0.3-6.5c1.4-3.1,3.8-5.2,7.2-5.8c3.6-0.7,7.3,1.3,8.9,4.6c1.5,3,1.4,5.9-0.2,8.8c-0.3,0.5-0.2,0.8,0.3,1
	c0.2,0.1,0.4,0.3,0.7,0.4c-1.7,0.9-3.3,1.7-5,2.6c0.1-1.9,0.1-3.7,0.2-5.6c0.3,0.2,0.6,0.4,0.8,0.5c0.3,0.2,0.4,0.1,0.6-0.1
	c1.9-3,1.1-6.9-1.8-8.8c-2.3-1.6-5.4-1.3-7.5,0.8c-0.8,0.8-1.5,1.7-1.9,2.7c-0.8,2.1-0.1,3.9,1.3,5.5C22.3,20.9,22.6,21.1,22.9,21.4
	z"/>
</svg>
