<svg width="48" height="48" viewBox="0 0 48 48" fill="none" xmlns="http://www.w3.org/2000/svg">
<circle cx="24" cy="24" r="24" fill="#101214"/>
<circle cx="24" cy="24" r="23.5" stroke="white" stroke-opacity="0.1"/>
<path d="M24.1113 33.7898C23.4862 33.7898 22.8752 33.9719 22.3554 34.3131C21.8357 34.6543 21.4306 35.1392 21.1914 35.7066C20.9522 36.274 20.8896 36.8983 21.0116 37.5007C21.1335 38.1029 21.4345 38.6562 21.8765 39.0905C22.3185 39.5248 22.8816 39.8205 23.4947 39.9403C24.1078 40.0601 24.7432 39.9986 25.3207 39.7636C25.8983 39.5286 26.3918 39.1306 26.7391 38.6199C27.0864 38.1093 27.2717 37.509 27.2717 36.8949C27.2717 36.0713 26.9388 35.2816 26.346 34.6992C25.7534 34.117 24.9495 33.7898 24.1113 33.7898Z" fill="white"/>
<path d="M35.832 21.1997C35.2069 21.1997 34.5959 21.3819 34.0761 21.7231C33.5564 22.0643 33.1513 22.5492 32.9121 23.1165C32.6729 23.684 32.6103 24.3083 32.7322 24.9106C32.8542 25.513 33.1552 26.0662 33.5972 26.5005C34.0392 26.9348 34.6023 27.2305 35.2154 27.3503C35.8285 27.4701 36.464 27.4086 37.0415 27.1736C37.619 26.9386 38.1126 26.5406 38.4599 26.0299C38.8071 25.5193 38.9925 24.919 38.9925 24.3048C38.9925 23.4813 38.6595 22.6915 38.0668 22.1092C37.4741 21.5269 36.6702 21.1997 35.832 21.1997Z" fill="white"/>
<path d="M12.1605 21.1997C11.5354 21.1997 10.9244 21.3819 10.4046 21.7231C9.88485 22.0643 9.47981 22.5492 9.2406 23.1165C9.00139 23.684 8.93875 24.3083 9.06076 24.9106C9.1827 25.513 9.48371 26.0662 9.92566 26.5005C10.3677 26.9348 10.9308 27.2305 11.5439 27.3503C12.157 27.4701 12.7924 27.4086 13.3699 27.1736C13.9475 26.9386 14.4411 26.5406 14.7883 26.0299C15.1356 25.5193 15.3209 24.919 15.3209 24.3048C15.3209 23.4813 14.988 22.6915 14.3952 22.1092C13.8026 21.5269 12.9987 21.1997 12.1605 21.1997Z" fill="white"/>
<path d="M24.1113 14.2102C24.7366 14.2115 25.3483 14.0303 25.8689 13.6899C26.3895 13.3495 26.7956 12.865 27.0357 12.2977C27.2759 11.7304 27.3394 11.1059 27.2181 10.5032C27.097 9.90045 26.7965 9.34657 26.3547 8.91167C25.913 8.47682 25.3499 8.18046 24.7366 8.06015C24.1234 7.93978 23.4876 8.00094 22.9097 8.23577C22.3319 8.4706 21.8378 8.86854 21.4903 9.37931C21.1427 9.89008 20.9572 10.4907 20.9572 11.1051C20.9572 11.9275 21.2892 12.7163 21.8806 13.2985C22.472 13.8806 23.2741 14.2085 24.1113 14.2102Z" fill="white"/>
<path d="M31.3025 28.315C30.1719 27.1975 29.5373 25.6857 29.5373 24.11C29.5373 22.5342 30.1719 21.0225 31.3025 19.9049C31.7433 19.4701 32.043 18.9169 32.164 18.3149C32.285 17.7129 32.2216 17.0892 31.982 16.5225C31.7425 15.9559 31.3374 15.4716 30.8179 15.131C30.2985 14.7903 29.6879 14.6086 29.0633 14.6086C28.4387 14.6086 27.8282 14.7903 27.3088 15.131C26.7893 15.4716 26.3842 15.9559 26.1447 16.5225C25.9051 17.0892 25.8417 17.7129 25.9627 18.3149C26.0836 18.9169 26.3834 19.4701 26.8241 19.9049C27.392 20.4577 27.8428 21.1157 28.1506 21.8407C28.4581 22.5657 28.6165 23.3434 28.6165 24.1289C28.6165 24.9143 28.4581 25.692 28.1506 26.417C27.8428 27.142 27.392 27.7999 26.8241 28.3527C26.3834 28.7875 26.0836 29.3408 25.9627 29.9428C25.8417 30.5448 25.9051 31.1685 26.1447 31.7352C26.3842 32.3019 26.7893 32.7861 27.3088 33.1267C27.8282 33.4674 28.4387 33.6491 29.0633 33.6491C29.6879 33.6491 30.2985 33.4674 30.8179 33.1267C31.3374 32.7861 31.7425 32.3019 31.982 31.7352C32.2216 31.1685 32.285 30.5448 32.164 29.9428C32.043 29.3408 31.7433 28.7875 31.3025 28.3527V28.315Z" fill="white"/>
<path d="M22.205 30.1253C22.2016 29.3101 21.8758 28.528 21.2965 27.9443C20.1659 26.8266 19.5313 25.3149 19.5313 23.7391C19.5313 22.1634 20.1659 20.6517 21.2965 19.5341C21.7373 19.0994 22.037 18.5461 22.158 17.9441C22.2789 17.3421 22.2156 16.7184 21.976 16.1517C21.7365 15.585 21.3314 15.1009 20.8119 14.7601C20.2924 14.4195 19.6819 14.2377 19.0573 14.2377C18.4327 14.2377 17.8222 14.4195 17.3027 14.7601C16.7833 15.1009 16.3782 15.585 16.1386 16.1517C15.8991 16.7184 15.8357 17.3421 15.9566 17.9441C16.0777 18.5461 16.3774 19.0994 16.8181 19.5341C17.385 20.0869 17.8351 20.7444 18.1422 21.4688C18.4492 22.1932 18.6073 22.9702 18.6073 23.7549C18.6073 24.5397 18.4492 25.3166 18.1422 26.041C17.8351 26.7654 17.385 27.423 16.8181 27.9757C16.4542 28.3387 16.1869 28.7842 16.0397 29.2728C15.8925 29.7613 15.8698 30.2779 15.9738 30.7771C16.0779 31.2762 16.3053 31.7425 16.6361 32.135C16.967 32.5274 17.3909 32.8337 17.8708 33.0271C18.3506 33.2204 18.8714 33.2948 19.3874 33.2437C19.9034 33.1925 20.3987 33.0174 20.8295 32.7338C21.2603 32.4501 21.6135 32.0667 21.8578 31.6173C22.1022 31.1679 22.2302 30.6662 22.2306 30.1567L22.205 30.1253Z" fill="white"/>
</svg>
