<svg width="48" height="48" viewBox="0 0 48 48" fill="none" xmlns="http://www.w3.org/2000/svg">
<circle cx="24" cy="24" r="24" fill="#262435"/>
<circle cx="24" cy="24" r="23.5" stroke="white" stroke-opacity="0.1"/>
<path d="M11.2252 21.7564L8.5 19.8828H16.6755L21.2743 27.3771L17.8678 25.5035L15.6536 29.0803H22.9775V36.4043H16.2926C15.2726 36.4043 14.3379 35.8346 13.8704 34.928L9.70121 26.8421C9.27167 26.0091 9.30036 25.0138 9.77717 24.2069L11.2252 21.7564Z" fill="#4E529A"/>
<path d="M11.2252 21.7564L8.5 19.8828H16.6755L21.2743 27.3771L17.8678 25.5035L15.6536 29.0803C14.6044 30.8842 13.4534 33.0605 13.8704 34.928L9.70121 26.8421C9.27167 26.0091 9.30036 25.0138 9.77717 24.2069L11.2252 21.7564Z" fill="#8C8DFC"/>
<path d="M32.6943 13.6836L35.6077 12.1188L31.8641 19.3869L23.096 20.0435L26.3214 17.873L24.1555 14.2668L20.8019 20.7778L14.2909 17.4241L17.352 11.4812C17.819 10.5744 18.7534 10.0044 19.7734 10.0039L28.8708 10C29.8081 9.9996 30.6798 10.4809 31.1789 11.2742L32.6943 13.6836Z" fill="#4E529A"/>
<path d="M32.6943 13.6836L35.6077 12.1188L31.8641 19.3869L23.096 20.0435L26.3214 17.873L24.1555 14.2668C23.0323 12.5081 21.6247 10.4883 19.7734 10.0039L28.8709 10C29.8081 9.9996 30.6799 10.4809 31.1789 11.2742L32.6943 13.6836Z" fill="#8C8DFC"/>
<path d="M28.6027 36.7031L28.3427 40L24.255 32.9198L28.4458 25.19L28.5265 29.0769L32.7312 29.2061L29.0693 22.8634L35.4119 19.2014L38.7544 24.9907C39.2644 25.8741 39.2384 26.9684 38.6869 27.8265L33.7691 35.48C33.2624 36.2686 32.3861 36.7414 31.4489 36.7319L28.6027 36.7031Z" fill="#6E5795"/>
<path d="M28.6027 36.7031L28.3427 40L24.255 32.9198L28.4458 25.19L28.5265 29.0769L32.7312 29.2061C34.818 29.2127 37.2782 29.1215 38.6869 27.8265L33.7691 35.48C33.2624 36.2686 32.3861 36.7414 31.4489 36.7319L28.6027 36.7031Z" fill="#CC99FF"/>
</svg>
