<?xml version="1.0" encoding="utf-8"?>
<!-- Generator: Adobe Illustrator 27.7.0, SVG Export Plug-In . SVG Version: 6.00 Build 0)  -->
<svg version="1.1" id="Layer_1" xmlns="http://www.w3.org/2000/svg" xmlns:xlink="http://www.w3.org/1999/xlink" x="0px" y="0px"
	 viewBox="0 0 48 48" style="enable-background:new 0 0 48 48;" xml:space="preserve">
<style type="text/css">
	.st0{fill:#0E121D;}
	.st1{fill-rule:evenodd;clip-rule:evenodd;fill:url(#SVGID_1_);}
</style>
<circle class="st0" cx="24" cy="24" r="24"/>
<linearGradient id="SVGID_1_" gradientUnits="userSpaceOnUse" x1="23.9967" y1="42" x2="23.9967" y2="10" gradientTransform="matrix(1 0 0 -1 0 50)">
	<stop  offset="0" style="stop-color:#2AEADA"/>
	<stop  offset="1" style="stop-color:#1E9FEE"/>
</linearGradient>
<path class="st1" d="M36.1,36c0.1,0,0.2,0.1,0.3,0.2l0,0c0.5,0.2,0.7,0.8,0.4,1.3c-0.5,1-1.3,1.8-2.3,2.2c-0.4,0.2-0.8,0.3-1.3,0.3
	c0,0-0.1,0-0.1,0c0,0,0,0,0,0l0,0h-0.7c0,0,0,0,0,0c-0.4,0-0.8-0.1-1.2-0.2c-0.2-0.1-0.4-0.1-0.5-0.2c-0.1,0-0.2-0.1-0.2-0.1l0,0
	l-0.6-0.3c-0.1,0-0.1-0.1-0.2-0.1c-0.1-0.1-0.3-0.1-0.4-0.2c-0.6-0.3-1.1-0.5-1.7-0.8c-0.6-0.3-1.1-0.5-1.7-0.8l-0.2-0.1
	c0,0,0,0,0,0c-0.1,0-0.2-0.1-0.3-0.1c-0.2-0.1-0.4-0.2-0.6-0.3c-1-0.4-1.9-0.9-2.9-1.3c-0.2-0.1-0.4-0.2-0.6-0.3
	c-0.1,0-0.2-0.1-0.3-0.1c-0.1,0-0.2-0.1-0.3-0.1c-0.2-0.1-0.5-0.2-0.7-0.3c-0.2-0.1-0.4-0.2-0.6-0.3c-0.1-0.1-0.3-0.1-0.4-0.2
	c0,0-0.1,0-0.1,0c0,0,0,0,0,0c-0.1-0.1-0.3-0.1-0.4-0.2c-0.3-0.1-0.6-0.3-1-0.4c-0.2-0.1-0.4-0.2-0.5-0.2c-0.9-0.4-1.8-0.8-2.6-1.2
	c-0.4-0.2-0.8-0.5-1.2-0.8c-0.6-0.6-0.9-1.2-1.2-2c-0.2-0.5-0.2-1.1-0.1-1.6c0.1-1.5,0.9-2.7,2.2-3.5c1.4-0.9,2.9-1.8,4.3-2.7
	c0.6-0.4,1.3-0.8,1.9-1.2c0,0,0,0,0.1,0c0,0,0,0,0,0c-0.1,0-0.2-0.1-0.3-0.1c-0.2-0.1-0.4-0.2-0.5-0.3c-0.2-0.1-0.4-0.2-0.5-0.3
	c-0.1,0-0.1-0.1-0.2-0.1c-0.1,0-0.2-0.1-0.3-0.1c-0.2-0.1-0.4-0.2-0.6-0.3l0,0c-0.6-0.3-1.2-0.6-1.9-0.9c-0.4-0.2-0.6-0.5-0.6-0.9
	c0-0.4,0.4-0.8,0.8-0.9c0.3,0,0.5,0.1,0.7,0.2c0.1,0.1,0.2,0.1,0.3,0.2c0.4,0.2,0.7,0.3,1.1,0.5c0.5,0.2,0.9,0.5,1.4,0.7l0,0
	c0.1,0.1,0.2,0.1,0.3,0.2c0.1,0,0.1,0,0.2,0.1c0.1,0,0.2,0.1,0.3,0.1c0.5,0.2,0.9,0.4,1.4,0.7c0.2,0.1,0.5,0.2,0.7,0.3
	c0.3,0.2,0.5,0.4,0.5,0.7c0,0.4-0.1,0.7-0.4,0.9c-0.8,0.5-1.6,1-2.4,1.5c-0.4,0.2-0.7,0.5-1.1,0.7c-0.4,0.2-0.8,0.5-1.2,0.7
	c-1,0.6-2.1,1.3-3.1,2c-0.7,0.4-1.1,1-1.2,1.8c-0.2,1,0.1,1.8,0.8,2.5c0,0,0,0,0.1,0.1c0,0,0,0,0,0c0.3,0.3,0.8,0.5,1.2,0.7
	c0.1,0,0.2,0.1,0.3,0.2c0.7,0.3,1.4,0.6,2.1,1l0.1,0.1c0.4,0.2,0.8,0.4,1.2,0.5c0.2,0.1,0.5,0.2,0.7,0.3c0,0,0.1,0,0.1,0
	c0,0,0,0,0,0c0.1,0.1,0.3,0.1,0.4,0.2c0.3,0.1,0.6,0.3,0.9,0.4c0.1,0,0.2,0.1,0.3,0.1c0.1,0,0.1,0.1,0.2,0.1c0,0,0.1,0,0.1,0
	c0,0,0,0,0,0l0.1,0c0,0,0.1,0,0.1,0c0,0,0,0,0,0c0,0,0.1,0,0.1,0.1l0.2,0.1c0.1,0,0.2,0.1,0.3,0.1c0.2,0.1,0.5,0.2,0.7,0.3
	c1,0.5,2,0.9,3,1.4l0.3,0.1c0,0,0,0,0.1,0c0,0,0,0,0,0c0.1,0.1,0.3,0.1,0.4,0.2c0.3,0.2,0.7,0.3,1,0.5c0.3,0.2,0.7,0.3,1,0.5
	c0.3,0.1,0.5,0.2,0.8,0.4c0.2,0.1,0.4,0.2,0.7,0.3c0.1,0,0.2,0.1,0.3,0.1c0.1,0,0.1,0.1,0.2,0.1c0.1,0.1,0.3,0.1,0.4,0.2
	c0.2,0.1,0.4,0.1,0.5,0.1c0.6,0.1,1.1-0.1,1.6-0.4c0.1-0.1,0.3-0.2,0.4-0.3c0.1,0,0.1-0.1,0.2-0.2c-0.1-0.1-0.2-0.1-0.4-0.2
	c-0.3-0.1-0.5-0.2-0.8-0.4c-0.2-0.1-0.4-0.2-0.6-0.3c-0.1,0-0.2-0.1-0.3-0.1l0,0c0,0-0.1,0-0.1,0c-0.1,0-0.2-0.1-0.3-0.1
	c-0.2-0.1-0.5-0.2-0.7-0.3c-1.3-0.6-2.5-1.2-3.8-1.7c0,0,0,0-0.1,0c0,0,0,0,0,0c-0.1-0.1-0.2-0.1-0.3-0.2c-0.2-0.1-0.4-0.2-0.7-0.3
	c-0.3-0.1-0.6-0.3-0.8-0.4c-0.3-0.1-0.6-0.3-0.8-0.4c-0.5-0.2-1-0.5-1.5-0.7c-0.4-0.2-0.7-0.3-1.1-0.5c0,0,0,0-0.1,0c0,0,0,0,0,0
	c-0.4-0.2-0.8-0.3-1.1-0.5c-0.8-0.3-1.5-0.7-2.3-1c-0.3-0.1-0.6-0.3-0.8-0.4c-0.1-0.1-0.3-0.1-0.4-0.2c-0.1-0.1-0.2-0.1-0.4-0.2
	c-0.2-0.1-0.5-0.2-0.7-0.3c-0.1,0-0.1-0.1-0.2-0.1c-0.2-0.1-0.4-0.2-0.6-0.3c-0.3-0.1-0.5-0.4-0.5-0.7c0-0.4,0.1-0.7,0.4-0.9
	c1.1-0.7,2.3-1.4,3.4-2.1c0.6-0.4,1.2-0.8,1.8-1.1c1-0.6,2-1.3,3.1-1.9c0.8-0.5,1.5-0.9,2.3-1.4c0.3-0.2,0.5-0.3,0.8-0.5
	c0.2-0.1,0.3-0.2,0.5-0.3c0,0,0.1,0,0.1-0.1c0,0,0,0,0.1,0L26,18.6c-0.1-0.1-0.3-0.1-0.4-0.2c-0.4-0.2-0.9-0.4-1.3-0.6
	c-0.6-0.3-1.3-0.6-1.9-0.9c-0.1,0-0.2-0.1-0.3-0.1c0,0,0,0-0.1,0c0,0,0,0,0,0c-0.2-0.1-0.3-0.2-0.5-0.2c-0.4-0.2-0.7-0.3-1.1-0.5
	c-0.9-0.4-1.8-0.9-2.7-1.3c-0.2-0.1-0.4-0.2-0.6-0.3c-0.1,0-0.1-0.1-0.2-0.1c0,0-0.1,0-0.1,0c0,0-0.1,0-0.1-0.1
	c-0.1,0-0.2-0.1-0.2-0.1c-0.3-0.1-0.5-0.2-0.8-0.4c-0.2-0.1-0.4-0.2-0.7-0.3l0,0c-1.1-0.5-2.2-1.1-3.4-1.6c-0.5-0.2-0.7-0.8-0.5-1.3
	c0.6-1.1,1.4-1.9,2.6-2.3C14.4,8,15,8,15.6,8c0.7,0,1.3,0.3,2,0.6c0.8,0.4,1.5,0.7,2.3,1.1c0.3,0.2,0.7,0.3,1,0.5c0,0,0,0,0.1,0
	c0,0,0,0,0,0l0.1,0.1l0.2,0.1c0.1,0,0.2,0.1,0.3,0.1c0.2,0.1,0.5,0.2,0.7,0.3c0.2,0.1,0.3,0.2,0.5,0.2c0.2,0.1,0.3,0.1,0.5,0.2
	c0.6,0.3,1.1,0.5,1.7,0.8c0.4,0.2,0.8,0.4,1.2,0.6c0,0,0.1,0,0.1,0c0,0,0,0,0,0c0.1,0,0.2,0.1,0.3,0.1c0.2,0.1,0.4,0.2,0.6,0.3
	c0.2,0.1,0.4,0.2,0.5,0.2c0.2,0.1,0.4,0.2,0.6,0.3c0.4,0.2,0.8,0.4,1.2,0.6c0.2,0.1,0.4,0.2,0.6,0.3c0.2,0.1,0.4,0.2,0.6,0.3
	c0.1,0.1,0.3,0.1,0.4,0.2c0.8,0.3,1.6,0.7,2.2,1.3c0.5,0.6,0.9,1.2,1.1,2c0,0,0,0,0,0c0,0,0,0,0,0c0,0.1,0,0.1,0,0.2
	c0,0.1,0.1,0.3,0.1,0.4c0,0.2,0,0.4,0,0.6c0,1.2-0.5,2.2-1.2,3c-0.4,0.4-0.8,0.7-1.3,1c0,0-0.1,0.1-0.1,0.1L26,27.2c0,0,0,0,0,0
	c0,0,0,0,0,0c0.1,0,0.2,0.1,0.2,0.1c0.2,0.1,0.3,0.1,0.5,0.2c0.5,0.2,1.1,0.5,1.6,0.7c0.5,0.2,1.1,0.5,1.6,0.7c0,0,0,0,0,0
	c0,0,0,0,0,0c0.1,0,0.2,0.1,0.2,0.1c0.3,0.1,0.5,0.2,0.8,0.3c0.1,0.1,0.2,0.1,0.3,0.2c0.1,0.1,0.2,0.1,0.3,0.2
	c0.4,0.2,0.8,0.4,1.3,0.6c0.4,0.2,0.7,0.3,1.1,0.5c0.1,0,0.1,0.1,0.2,0.1c0.2,0.1,0.4,0.2,0.5,0.3c0.4,0.2,0.5,0.5,0.5,1
	c0,0.3-0.3,0.6-0.6,0.7c-0.2,0.1-0.5,0.1-0.7,0c-0.6-0.3-1.2-0.6-1.8-0.8c-0.3-0.2-0.7-0.3-1-0.5c-0.4-0.2-0.9-0.4-1.3-0.6
	c-0.3-0.1-0.6-0.3-0.9-0.4c-0.1-0.1-0.3-0.1-0.4-0.2c-0.2-0.1-0.3-0.1-0.5-0.2c-0.3-0.1-0.6-0.3-0.9-0.4c-0.9-0.4-1.7-0.8-2.5-1.2
	l0,0c-0.1,0-0.1-0.1-0.2-0.1c-0.2-0.1-0.4-0.2-0.6-0.3c-0.4-0.2-0.6-0.5-0.5-0.9c0-0.3,0.2-0.6,0.4-0.7c0.2-0.1,0.4-0.2,0.6-0.4
	c0.8-0.5,1.7-1,2.5-1.6c0.5-0.3,0.9-0.6,1.4-0.9c1.1-0.7,2.2-1.4,3.3-2.1c0.5-0.3,0.8-0.7,1-1.2c0.1-0.3,0.2-0.6,0.2-0.9
	c0-0.4,0-0.8-0.2-1.1c-0.3-0.7-0.7-1.2-1.3-1.5c-0.3-0.1-0.6-0.3-0.9-0.4c-0.2-0.1-0.3-0.2-0.5-0.2c0,0-0.1-0.1-0.1-0.1
	c0,0,0,0-0.1,0c-0.1-0.1-0.3-0.1-0.4-0.2c-0.3-0.1-0.6-0.3-0.9-0.4c-0.9-0.4-1.8-0.9-2.7-1.3c-0.2-0.1-0.3-0.2-0.5-0.2
	c-0.1,0-0.1-0.1-0.2-0.1c-0.1-0.1-0.3-0.1-0.4-0.2c-0.3-0.1-0.6-0.3-0.9-0.4c-1.1-0.5-2.2-1.1-3.4-1.6c-0.2-0.1-0.3-0.2-0.5-0.2
	c0,0-0.1,0-0.1,0c0,0,0,0,0,0c-0.2-0.1-0.3-0.1-0.5-0.2c-0.3-0.1-0.6-0.3-1-0.4c-0.2-0.1-0.4-0.2-0.6-0.3c-0.3-0.1-0.6-0.3-0.9-0.4
	c-0.3-0.1-0.7-0.2-1-0.3c-0.8-0.1-1.5,0.2-2.1,0.7c0,0,0,0,0,0c0,0,0,0,0,0c0,0,0,0,0,0c0,0,0.1,0,0.1,0c0.8,0.4,1.5,0.7,2.3,1.1
	c0.8,0.4,1.5,0.7,2.3,1.1c0,0,0.1,0,0.1,0.1c0,0,0,0,0,0c0.2,0.1,0.3,0.2,0.5,0.2c0.4,0.2,0.9,0.4,1.3,0.6c1,0.5,2.1,1,3.1,1.5
	l0.2,0.1c0,0,0,0,0.1,0c0,0,0,0,0,0c0.1,0,0.2,0.1,0.3,0.1c0.2,0.1,0.4,0.2,0.6,0.3c0.1,0,0.2,0.1,0.2,0.1c0.1,0,0.2,0.1,0.2,0.1
	c0.2,0.1,0.5,0.2,0.7,0.3c0.3,0.1,0.6,0.3,0.9,0.4c0.2,0.1,0.5,0.2,0.7,0.3c0.1,0.1,0.2,0.1,0.3,0.2c0.1,0,0.2,0.1,0.3,0.1
	c0.3,0.1,0.5,0.2,0.8,0.4c0.4,0.2,0.8,0.4,1.3,0.6c0,0,0.1,0,0.1,0c0,0,0,0,0,0c0.5,0.2,0.8,0.5,0.8,1c0,0.3-0.2,0.5-0.4,0.7
	c-1.3,0.8-2.5,1.6-3.8,2.4c-0.4,0.2-0.8,0.5-1.2,0.7c-0.4,0.3-0.9,0.6-1.3,0.8c-1,0.6-2,1.3-3,1.9c-0.1,0.1-0.2,0.1-0.4,0.2
	c-0.1,0-0.1,0.1-0.2,0.1c0,0,0,0-0.1,0c0,0,0,0-0.1,0l-0.1,0.1c-0.1,0-0.1,0.1-0.2,0.1l-0.1,0.1l-0.1,0l-0.1,0.1c0,0,0,0,0,0
	c0,0,0,0,0,0l-0.1,0c-0.1,0.1-0.2,0.1-0.4,0.2l-0.1,0.1c0,0-0.1,0-0.1,0c0,0-0.1,0-0.1,0c0,0,0,0-0.1,0.1l-0.2,0.1
	c-0.1,0.1-0.2,0.1-0.3,0.2c-0.1,0.1-0.2,0.1-0.3,0.2l0.9,0.4l0.1,0l0.2,0.1c0.1,0.1,0.2,0.1,0.3,0.2c0.3,0.1,0.5,0.2,0.8,0.4
	c0.1,0.1,0.3,0.1,0.4,0.2c0.1,0.1,0.3,0.1,0.4,0.2c0.8,0.4,1.6,0.7,2.4,1.1c0,0,0.1,0,0.1,0.1c0,0,0,0,0,0c0.1,0,0.2,0.1,0.2,0.1
	c0.2,0.1,0.4,0.2,0.5,0.2c0.5,0.2,1.1,0.5,1.6,0.7c0.6,0.3,1.3,0.6,1.9,0.9c0.3,0.1,0.5,0.2,0.8,0.4c0.1,0.1,0.2,0.1,0.4,0.2
	c0.1,0,0.2,0.1,0.3,0.1c0.3,0.1,0.6,0.3,0.8,0.4c1.2,0.5,2.4,1.1,3.5,1.6c0,0,0.1,0,0.1,0c0,0,0,0,0,0c0.1,0,0.1,0.1,0.2,0.1
	c0.1,0.1,0.2,0.1,0.3,0.2c0.1,0.1,0.2,0.1,0.3,0.2c0.1,0,0.2,0.1,0.2,0.1c0.1,0,0.2,0.1,0.3,0.1c0.1,0.1,0.2,0.1,0.4,0.2
	C35.9,35.9,36,35.9,36.1,36z M22.6,33.9C22.6,33.9,22.6,33.9,22.6,33.9C22.6,33.9,22.6,33.9,22.6,33.9
	C22.6,33.9,22.6,33.9,22.6,33.9z M27.4,17.5L27.4,17.5C27.3,17.5,27.3,17.5,27.4,17.5C27.4,17.5,27.4,17.5,27.4,17.5z M13.6,14.7
	c0.5,0,1,0.4,1,1c0,0.6-0.4,1-1,1c-0.5,0-1-0.4-1-1C12.6,15.2,13.1,14.7,13.6,14.7z"/>
</svg>
